<mxfile host="65bd71144e">
    <diagram id="veCpBfoU8b5r5UZ3XDrA" name="Page-1">
        <mxGraphModel dx="2235" dy="1455" grid="1" gridSize="10" guides="1" tooltips="1" connect="1" arrows="1" fold="1" page="1" pageScale="1" pageWidth="850" pageHeight="1100" math="0" shadow="0">
            <root>
                <mxCell id="0"/>
                <mxCell id="1" parent="0"/>
                <mxCell id="3" value="" style="shape=image;verticalLabelPosition=bottom;labelBackgroundColor=default;verticalAlign=top;aspect=fixed;imageAspect=0;image=data:image/png,iVBORw0KGgoAAAANSUhEUgAACkcAAANzCAYAAAAZHF29AAAAAXNSR0IArs4c6QAAAARnQU1BAACxjwv8YQUAAAAJcEhZcwAAITcAACE3ATNYn3oAAAASdEVYdFNvZnR3YXJlAEdyZWVuc2hvdF5VCAUAAMUFSURBVHhe7P2LnyRlYS/+//4Wzvme35cT8wXJN2AiAZWLAVFQ4oUgijdwYzSQoEHhSCBBQ5QYjcYLGBFR2agoAZFrYNUIMRGOnkUuq4gghOyy7i57m2UXnu88M1Uz1c88PdM9demamff79fq8gO6qnurq6u7qpz5U/f8CAAAAAAAAAAAAwCqiHAkAAAAAAAAAAACsKsqRAAAAAAAAAAAAwKqiHAkAAAAAAAAAAACsKsqRAAAAAAAAAAAAwKqiHAkAAAAAAAAAAACsKsqRAAAAAAAAAAAAwKqiHAkAAAAAAAAAAACsKsqRAAAAAAAAAAAAwKrSy3Lk/v37w969e8POnTvDjh07wrZt28Kvf/1rEREREREREREREREREREREREREelpYtcvdv5i9y92AGMXcFJ6U448cOBA2LNnT9i+fXt2pYmIiIiIiIiIiIiIiIiIiIiIiIjIykrsBMZuYOwIdmni5cjnn38+7N69O7tSRERERERERERERERERERERERERGR1JHYFY2ewCxMtR05NTblktoiIiIiIiIiIiIiIiIiIiIiIiMgaSewMxu5g2yZWjlzsbJHxNJrxycfTaHbVEgUAAAAAAAAAAADqiZ2/2P2LHcDYBcx1BGNih7BNEylH7ty5M/tk4+1dX1ccAAAAAAAAAAAAaEfsBC7WGWxL5+XIYU9y//79xRQAAAAAAAAAAADAahI7grnuYFsFyU7LkblLaccn5tLZAAAAAAAAAAAAsLrFrmDuBIttXGK7s3JkvH54F08IAAAAAAAAAAAA6K/ciRZjx7BJnZQjY9tz27ZtA0+kzWuFAwAAAAAAAAAAAP2VnkEydgybvAp1J+XIXMvTpbQBAAAAAAAAAABgbYodwrRX2OTVqFsvRx44cGDBE9i/f39xLwAAAAAAAAAAALAWxS5h2i+MncMmtF6O3LNnz8CCx/8GAAAAAAAAAAAAaKtj2Ho5cvv27QML7nLaAAAAAAAAAAAAQJReXjt2DpvQajkyPeXljh07insAAAAAAAAAAAAAwky3sNo1jN3DulotR+7du7fxBQYAAAAAAAAAAABWj/REjLF7WFer5cidO3cOLLBLagMAAAAAAAAAAABV6aW1Y/ewrlbLkempLgEAAAAAAAAAAABS1a5h7B7W1Wo5ctu2bQMLDAAAAAAAAAAAAJCqdg1j97CuVsuR1YWNAQAAAAAAAAAAAEg13TdUjgQAAAAAAAAAAAAmqum+oXIkAAAAAAAAAAAAMFFN9w2VIwEAAAAAAAAAAICJarpvqBwJAAAAAAAAAAAATFTTfUPlSAAAAAAAAAAAAGCimu4bKkcCAAAAAAAAAAAAE9V031A5EgAAAAAAAAAAAJiopvuGypEAAAAAAAAAAADARDXdN1SOBAAAAAAAAAAAACaq6b6hciQAAAAAAAAAAAAwUU33DZUjAQAAAAAAAAAAgIlqum+oHAkAAAAAAAAAAABMVNN9Q+VIAAAAAAAAAAAAYKKa7hsqRwIAAAAAAAAAAAAT1XTfUDkSAAAAAAAAAAAAmKim+4bKkQAAAAAAAAAAAMBENd03VI4EAAAAAAAAAAAAJqrpvqFyJAAAAAAAAAAAADBRTfcNlSMBAAAAAAAAAACAiWq6b6gcCQAAAAAAAAAAAExU031D5UgAAAAAAAAAAABgopruGypHNuXAo+GKM48NBx12Srjoe/uKGwuPXRtOOuSocNAhl4Q7i5sY1d3hnJl1d1Q4567iptIj14ZTD5++7/iPhTt3F7etYTvuuiwccdhR4eAzrwuPFbcB0JC7Lpn5Ljroddf6jB3LIt/jo7LuO3HnBbOv00lXPVncAgAAAAAAANCtpvuGypEZj131ttmD8Etk4ODxXAFyOhfcXdxYWOXlyGWtr5ENL1VU/+6yCxcTtS9cf26xfs68Lmwubl3avnDzeQvnK0sNBx3ytnCF9siS5tZX+n5l4ua35cWzMt/3a938Z/pY6cP7dBUV9Eb93h7Mcr9blCMXN/76mXv9Gl4fypEAAAAAAADApDXdN1SOzFhW2W8NnzlyUuXI1XDmyKlbLyzWz7pw9VPFjUvZvSGsO2x2nay7aX5bc+bI8ShH9pdy5GqmHNkHypF9ohwJAAAAAAAAUGq6b6gcmdH4Qee1Uo5spbSw/FLF5vuvC5efuy4cemmPy2+VouOp67cWNy5urlB52IXhZpcTX7a1Vo6cemRDuOLic8Lxb+9/uUhxdbm2hvvXXxHWnXFiuGilFUfL8lufvydXdUEvejJc8brZ916z5TjlyMUpRwIAAAAAAACUmu4bKkdmKEeOp6/lyJVSsJpbzpHWX+VS3OdtCFPFrYxvrRXw2n2fNks5crkaKKFNinJkDyhHToZyJAAAAAAAAECp6b6hcmSGcuR4lCNr+uHHwqEzz3GES5buvi2sW+b6YJByZH8pRy6XcmSrlCOXSTlyccqRAAAAAAAAAKWm+4bKkRnKkeNRjqzpwI/CRUfOLutShYTN3zhn9jkd+bHwgwPFjSyLcmR/KUcul3Jkq5Qjl0k5cnHKkQAAAAAAAAClpvuGypEZyzvoPF8qWHBwe5Ry5IGd4d71l4RTjz9x9m9P5+Cjzwinf2RDeKzn106ue5B+6rG7wxUXrAtHFAXBgw47MRxxxiXh6h/vnL53kdJAdr3OT5/PCGdnnIAfXFq87iddEe4vbltoa7j6zNnncehfbyxuqxilPLJtY7i6uq4POTYceuo54UO3Pjl4ie7dG8K6w2anGVrWmDvj5YXh+t3FbQM2FqXPE8NF9xY39chiBbwF23Sx3g49vJjn8BPDqRdcF+7dNjN53tST4c6rBt/TBx15Sjj+7MvC9cNeoFFfnznJ+2P6b9586dvCocVrd/735j+XhmXUMk6X6pUj94XN998YPnT2GZX1WHyeXnxtuPOxfcV0qaQYFj+Tr7owHF285id9qSwLJeu8/Ow++tjZv1VuG8/MTj3jqR+Fy889Y6ztZ2rLw2H9R84JxyfbT3a+uWLhkDRcoGrFyOXI5b6+87Lrdvo1ie/NK6bfM0O/cpf4jF3wXTadQ4+Py3Vb/9f/jFHKkfn1f+jx68I56zeGHdnS/sLv8c13XxvOOePEcHBx+0FHxv2dG8P9w94TTX6/9c4i+zlDjLbftS88duunwumnVtfzkM+QwvByZAOvIQAAAAAAAMAImu4bKkdmdF6O3LYhnH98cXA55vAT50s0McdcGK5/qpi2h+qUIzd9433hiPJ5xgw891Om1+WNw0sDq6gcGe4ti4avD5c/WNyWeuq6cGo5Ta5BuUR5ZMcdl4UjitJczMFHV0oN0znivNvC5rliy75w/bmzt2eLmNPu/ev5YlG20FG+PodNvz49PMvlqOXITY9MP49ivaXr7KBjpp9btQRXmp7n1Op7+Mjp7bqy7nPra7zXp1QtrEx/Bp02P/3cbWupHDn1aLj6XacMPL+Djz5lYN3Hz5W3fuPRYoaqajHs4XDnxYOPM18WqqzzOx4NV5xZliKLf5Ypto0dP/xYOL78+9PbwSjbz+Yb3jc4XfqdcPi6cHX1Tb5WypG1Xt9oX9i0fuF3TrXkF3PEu24Mm3KfWYt8xm760rqB1+zQ6fdv+e9LFz77Yqly5NZw/XsGt/P0c+rgM6/LbGvVz6mdA++tBZ+p09v2FY8Us1U1+v3WNwuLh0tZcr9r+r0y99kUc9j0Z0h1Oz/sbeHymf8BZdBo5chlvoYAAAAAAAAAI2i6b6gcmdFpOXL33eH8Y4oDyqdcFm6unPVqasuPwuVl2em0/pZblluO3HHXJXMlleMv3hA2Vc4+GJ/7Fe85JRxUKTuMtV6n1Tv7XNceDpefMLu8R3/q4eK2QZvXr5t9PsPOLrlIeWTqe5cNrOv5s5HuC5t/eMVc+W/+7HiVS3ifkPt7xfLG0t/0NLkC5dz8PV3/I5UjT3hbOGn6/Tm4fU6vs7sqhbfzNiRnJZteNyfN3nfEeTcObNdh99Zw/7c+Fj6Z/MnlvD6z5gsr6867MBx0zPvCFT/cmj1L2nLfp5OwrPfugUfny6GHnxEuuvXRMFUpQ8WzBV59flnoicXrtBhUKYZNr8ujDzsjnJ88xqz5dX70Sa+f/my+IvxgS/m5Pfh6HXr+x8I5sZCUTlPZfnLv95nXavrvn7P+R2Fz9XPxsRvDuvL7YsF2F41fsuqNpcqRtV/fEDaV74FDjg3HXzr4nROmpt+b66e/k4rX5YjpbW9HcdecYZ+xD14Rji7+7rpvJcv11MNh/aVXhx8U/91vS5Uji/tPuSRcHT9n5p7nvvDYty6c+wxbd2t69s757fLUt09/L2TeWzvuvTa8tdy2j/lYuDd93zX8/dYv479vF/88n36dyvdK/E64t/Je2P1oWH9e8T455rJwZ/U9MG2UcuSyX0MAAAAAAACAETTdN1SOzJg76Lxo0gLH8sqR93/i9bOPFwtvuQPJz2yYLdfESxP/sLitZ5a1vg5sDBcVB9GzJZQZO8PN5y9ydsJVVY6c3hY+VdkWitvmzW9fw8qTQ8sjB+bLekd/Ij/vjjsumT1z5ZEfCz8ot8MtN4bT422HnBPWbyluK90/WwY6+oJLZqdZUKCcP/PkupuWvsztJIxUjpzOsO1zfprksuJz2+WIZyld7uszY76wEv/eJxc5W9fiZZp+mXttFkvyPObKuIdNr/eh62Hn9GMXxaAF77P591j8vD3njoXlulmVdX7kJeHm3JkfyyJzzJCzQ977t8X7PVM+fuyGa8PNS11e+LDLMp9745esemOJcmTt1/ep6c+zsiR31bAzS1ZL+5mz+A75jF1J763Fzb8HhpUjr//ShiGXzq68by9OP1Orn1OvDx/68ZDvhMprdPo3thY3Fpr+fuuV6voZM5ltbsdNF87ed9j0d1PuzMYHHg2fLF7nU9cPrudRypHLfg0BAAAAAAAARtB031A5MmNZZb/llCMP3B3OKQ4iLzzT0rzy8sXDLm88actaX+VlpA+7MNycnLlowNy6W/3lyPmzj2VKOXPPdV24etgl1oeVR8rbF13XG8NFZQn33uKmyjadFhxni5xx2nKapAg4t21nipU9MVo5cpH1/cSQEuRcqTQWSIrbFrPs1yeqFFayZxKct7rLkfPb6tDycGnu8vTpupx/jKFnZ50xv86HlbHCI1eH44tp8iWzad+7bPZvDfn8GmrR8u38sq2ucmT913du+1/0tY22hqvPnP1bC75zh3zGzp9l91Mr/Gx58+t56Ha7iOGfMaN/Tv3g0uJ/iDj3tsHpGv9+65PK+hk3C9b1aO+VuW327TeGzcVt0UjlyOW+hgAAAAAAAAAjaLpvqByZsbwS0fwB6ZFLfMXZ9+LtNy9SqJhbnuQgdl8sZ31tuvKM2XmWPHi+SNlntZUjq6WGpHQ1d1bJM68bvg0MKY/MnZ30/A3FLTnzf7t6tqe513ZgHRbTFmfhKh9/4CxRZfm1p9tsNFI58tSrw6bitoWGbZtbw/q3F48dL//7rYfD5kU28jqvT3UZljpL1/I+1yZj7Pfu7tvCupn18Ppw+eLNt2nz63LwMrvzty9eRK+87ncUNy1QTrNIGWvu8ys582jF1LZHww9u3RCu/tRl4fxz14WjTzglHFoU6tdUObL26zt/JtuhhdaKuffKacl7ZVhBr3K2vINP/VhYf3/+0vb9V1l3i5UjD+wLOzb9KNx863Xh8osvC+vOeH04+vj5szwv/IyZ3y6XPJPwHcU6Ts+o2sL3W3+M/74d+nk+9145Y9EzCc+tz+nv8epH1CjlyGW/hgAAAAAAAAAjaLpvqByZsbwS0fzB95FLfHNlkBEz1vJ0ZznrqzwAv/TZMBcpDay6cmTlcrwDpYL5y4YuWuwYUh6ZWw8jZqAUURZ4qwWK8sxs5Xoti5CVomtZWFnO2ce6stj2Mdo2vci2+czGcPmZx84+RsxhJ4aTLrg23PnIwlJJrddnjFLN8j7XJmPs9+4IRcOq8vEH1+WIxbCR1nk5Ta7AWJhb5oXTTG26Lqw7qbL9VHLo0WUJbQ2VI2u/vvOv7UiX+R/yWTr09mk7fnxFOPXw2b8xkyPfFs656u6waYTl7Y+l3gP7wqb1F4ajq8+zzPRn3KEzZ2eczoL1M8Z2OWw7aOP7rTfGf98O/Tyfe6+MmsH1nP9sjBp4DQEAAAAAAABG0HTfUDkyQzlyPHXKkcdf+WhxyzCLHJAftl4Lc6WJFVSOnL8kbOUMaXNnGF2iGNRKeeThcPkJ8fb55Skvxzn3ehz40ewlSw+7rHgdyvfCIsWwHlhs+6hdjpyxL2y+/8bwobNfHw4upos54vzbwubKmWLrvT6jF1aUI+eVjz+4LntSjnxk+va5sxBeEq644e5w/xNbw+ZnilLfsPlmjL499M5iharar2/75cgZU1vD/d/6VDi9Wmw97JRwzk19PFthzuLvgU3lZ8ghx4bjL7g2XP+9h8NjW7aGHUUrfvhnzBjbZbmOkzMatvP91hfjv2+Hruu598qoabEcmb6GAAAAAAAAACNoum+oHJmxvBLRMsqR5Rn35kplK9Ny1tedF8+uq8UvhTlt7hKRY6zXwtgFq16YvyRzeVbNucuGnrdh8Uu1DimP3PvXxZnmLl7eeijnny1LFMt32IXh5kpJaXZdFwXKLTeG0+Pf6/klNRfbPkbbpscoi+x+NNz5qfeFI4rpj6icMbXe6zP6Mizvc20yxn7vltvcUpeSnTH/WT14JtZ+lCPL537o9GfjjuK2AUPmmzXGNtk35edX7vO89us7/7m6dCG/8l55+41hc3HbjCGfsTlTj9wdLn/XKbPTH3LK8Mur98oi74ED09vWTGn3xHDOHTuLGwcN/4wZ43PqS8VjjHhJ87rfb/0w/vt26Lqee69Mfz48Udw2hvLzp045cuhrCAAAAAAAADCCpvuGypEZyysRLaMcOVf8W6RAswIsZ32VZx+MZxb6QeUseqmpWy+cnW46I6/XwtgFq56orpt7w8bZszLmnn9qSHlk6qZiHY61PVf8sCjxxqJQuc2eO38J7aj8GzOFimI5lr5k+mR1Wo4szF02vVKIrvf6jFFYWdbn2mSM/96dv/T80Z96uLhtiOrZWR8sbpvRh3LkIt8jpfL9uJbKkQ28vvd/qiiZn7RUaXtruPrMIX9rjHLkrPnHWhnlvUXeA0t830Y/uLQoKi5YP/Pb5dGfWOz1q6z7dLq2vt96Yfz37fDP8/Jsz8v7DBilHLns1xAAAAAAAABgBE33DZUjMzorR4Z94ebzZucZepawFWBZ62uuwBIPwg85k9eB+ULMeOt11kotR86XZl8fLr+qKEItUSKdMay4s3tDWLfEGb8WNXfGsAvD1etniygLLk1bnq3q7TeG62fO5HVi78+UNoly5Pwl0ivbbK3XZ/RlWN3lyGrx9G3hiqFnF9w5/djF2fzSswL2rBw5eFbLwoFHwxWnzd6/tsqRDby+o3znTNsxvRwzZ3g97Jyw/qnixtLY5cjKmX9XxPfQKOXI6fWypbitqnI5+IXrZ367jGcdvv6Z4ubE3LpfUFye1tb3Wy+M/75d7PN8rgj8uqvDpqX2GxKjlCOX/RoCAAAAAAAAjKDpvqFyZEZ35chplULBEe+6Itz5SFI6270zbPreteGcC64bY1m6tbz1tS/cefH8JUffetWPwubKqQinHtkQzj9l+r7T3lasuzHX67S55TryknDztuLGFWG+NHvEMbPr6NBLf1Tct4hFijubynUR1/Wn7g6bKpfEjqa2PRruvOqScM5XcqWwcnleH056XSw+5sox5fZ/Rjj+1Ol/Hjb9moxZyuhaa+XIJ24LF33kxnD/U+l7+dGw/rxim08ukb7812eMUk25fRzytvDJTcmy9cyyis3V4uDhZ4SLbn00TFW2waktD4erzy/Wf7Zg14dyZOW5H/O+cPWD86/T1JYfhSviZZqnPxOGnzly/jnMFO57/h4cMLd95j/P67++1ffZseH4SzcMvs+mtob7118Sjii+j7MFyiGfsY/d8LHwoW89HDan79tHbgzrjpl9vHW39vs9N2uR98BcST7uq1wX7p97rvvC5h9eG946/TyPOGbpM0ceeuT0NNPb9hU/3Dr/GXhgX9j0rfl1f8TFdw98Ps5o7futD8b4HC8s+h31zPTjFdvdQadcFtbfX1nX0dTO8Nj9N4YPvX16n7O4qTRKOXLZryEAAAAAAADACJruGypHZnRajpy2467L5g4olzn0+BPDwZX/Hm9ZujW3vpZM8vxj2eXMYwenOfLEcGi5Lo6Znj4e5C/uG3e9hqduDKdX1uvBR58y/diLlJV6pHo58ZHPwrhIeWTmjGpzZdQih50Yjjh6cP0PK4XNXbo0ZsEZ92bNna0qZgWcJa21cuTcdlnkyOnt7vDKfx9/2fR2XUw7Z7mvzxilmgMbw0VlYSamWK5RyzhdWlY5MnrmR+FDpw6us9n3/fx/H3T4unD5j3NnmOtHOXLm9oHlnf5MLLefY94X1t9xdX6+wtxl+Wdy7Mx3SZ+/P+YsVY6Mar2+0c7wg4+cMfjdOr1+jziy8t/T6+zUT23Mn8l5WDky+Q5Mv79jUWxlnBl68ffAY18afJ4HHz3/PI94143h5iuHfW5W3jPfujucf3z5GNPbZ/IZFx8ne7bDFr/fJm+Mz/HCkt9Rj1wbTq1+70xnwXsl814bpRy57NcQAAAAAAAAYARN9w2VIzO6LkfO2LYxXH3xOeH46kHmw08MR596Tjj/qoVnQuqTZZcjowM7w/3f+lQ4/dT5ksXBR58RTv/IhvDYzGmHFikNjLBepzbdGM45o/rYF4brc5cE7ZvKWboOOumKcH9x86IWLY/M2nHvdeH8s88YKOsdfPTrw/FnXxau+N7gmdgGlJfNns6p6zOX+43mLhmduex2D7VWjtz9aLj+UxeGU0+oFKRiUSe+l9cPniE1Nf7rM2apZtvd4fL4+OW2deQZ4fIfF/f1yLLLkTP2hcduvSKsO6NaBDo2HFp8ls5+ruT0pBwZxe+DC9bNbwfT3wWnXnBduDeeAXex+WbMnsHt1Lnvkunnft5t2UJzr4xSjpyx3Nd33tRjG8Ll564bKEXOfO9cfG2487FFPruGfMZOPXLbzOMdXf3+PvKUmfft1dWz6/Xe0u+B+Bk1+J26LpyzfuPMWUqHf24m75mpJ8PNH5ne3ynXf/x8POOS6c+4J4evqza/3yZuzM/xaSN9R8X1HL+LYkG6ePyZdX3CurDuUzeG+7cs3NZHKkcu9zUEAAAAAAAAGEHTfUPlSAAAYIjxC5wAAAAAAAAAy9F031A5EgAAGEI5EgAAAAAAAOhG031D5UgAAGAI5UgAAAAAAACgG033DZUjAQCAIZQjAQAAAAAAgG403TdUjgQAAIZQjgQAAAAAAAC60XTfUDkSAAAYQjkSAAAAAAAA6EbTfUPlSAAAAAAAAAAAAGCimu4bKkcCAAAAAAAAAAAAE9V031A5EgAAAAAAAAAAAJiopvuGypEAAAAAAAAAAADARDXdN1SOBAAAAAAAAAAAACaq6b6hciQAAAAAAAAAAAAwUU33DZUjAQAAAAAAAAAAgIlqum+oHAkAAAAAAAAAAABMVNN9Q+VIAAAAAAAAAAAAYKKa7hsqRwIAAAAAAAAAAAAT1XTfUDkSAAAAAAAAAAAAmKim+4bKkQAAAAAAAAAAAMBENd03VI4EAAAAAAAAAAAAJqrpvqFyJAAAAAAAAAAAADBRTfcNlSMBAAAAAAAAAACAiWq6b6gcCQAAAAAAAAAAAExU031D5UgAAAAAAAAAAABgopruGypHAgAAAAAAAAAAABPVdN9QORIAAAAAAAAAAACYqKb7hsqRAAAAAAAAAAAAwEQ13TdUjgQAAAAAAAAAAAAmqum+oXIkAAAAAAAAAAAAMFFN9w2VIwEAAAAAAAAAAICJarpvqBwJAAAAAAAAAAAATFTTfUPlSAAAAAAAAAAAAGCimu4bKkcCAAAAAAAAAAAAE9V031A5EgAAAAAAAAAAAJiopvuGypEAAAAAAAAAAADARDXdN1SOBAAAAAAAAAAAACaq6b6hciQAAAAAAAAAAAAwUU33DZUjAQAAAAAAAAAAgIlqum+oHAkAAAAAAAAAAABMVNN9Q+VIAAAAAAAAAAAAYKKa7hsqRwIAAAAAAAAAAAAT1XTfUDkSAAAAAAAAAAAAmKim+4bKkQAAAAAAAAAAAMBENd03VI6EVWD//v1hamoq7N27V0RWeeJ7Pb7nAQAAAAAAAABWk6b7hsqRsII9//zzSpEiazTxvR8/AwAAAAAAAAAAVoOm+4bKkbCCKUaKrO3EzwAAAAAAAAAAgNWg6b6hciSsUPGyurmylIisrbjENgAAAAAAAACwGjTdN1SOhBXKWSNFJMbZIwEAAAAAAACA1aDpvqFyJKxQuZKUiKzNAAAAAAAAAACsdE33DZUjYYXKFaREZG0GAAAAAAAAAGCla7pvqBwJK1SuICUiazMAAAAAAAAAACtd031D5UhYoXIFKRFZmwEAAAAAAAAAWOma7hsqRzJR9z+4KTz+xH8W/8U4cgUpEVmbAQAAAAAAAABY6ZruGypHLsM/33R7OPoVbwhvedd7w6+3bS9uZVwbvn9P+LtP/+NMNv70oeJWRpUrSInI2gwAAAAAAAAAwErXdN9QOXJM1/3zzeG/HXp0OOiQo2bygYv/priHcWzf8Uz4xGevmitHfvwzXwg/fWhTcS+jyBWkRGRtBgAAAAAAAABgpWu6b6gcOYa0GBnz1ne9r7iXcezctSt86sovzZUjFSTHlytIicjaDAAAAAAAAADAStd031A5ckTXfuOGgVJkmdvv+tdiCsb14MM/HyhHlnGJ7dHkClIisjYDbdm379nsd/Ww+J8cAAAAAAAAAFiupvuGypEjyJ0xMv53vJ16YokinjGyWqxwBsnR5ApSIrI2w2g++4WvhBf+3isGvs+XSvy+f+Ub3h4+8onPhf+47yfh+eefLx5tbYjPObdehmXD9/+tmJOu3HTrneH4U87Ivh5t5phXnR5uvn1DsRT9Y73kWS951svasOnnvwhXX3vdwG/PNnLVV74eNj3yaPFX+6+r7d/2DgAAAADAKJruGypHLmFYMfKG79xeTEFdCpLLkytIicjaDKP57y98ycD3+XJyyh+eFZ78z/8qHnH127xla7jn3+8Ld33vnnDWn7x/wfo47KiTwmf+8csz08Ts2rW7mJOuvPw1b17wunSVI1/+2mIp+sd6ybNe8qyXtaGLYmSZz39pffFX+6/LYrDtHQAAAACApTTdN1SOXESuGPl/vfAlipEteGjTIwqSY8oVpERkbYbRVL/P6yQWAh97/IniUdeO7TueWbAubv2X7xb3MilKXXnWS571kme9rA1fWv/Ngd+bbWYllSO73P5t7wAAAAAALKXpvqFy5BDDipG33KEE0JZYkPzEZ68aOKikIDlcriAlImszjKb6nV43x53yxvDss88Wj7w2/OKXjw+sg3iJ8ueee664l0mJl0ON22P1tekisUxz253fL5aif6yXPOslz3pZG+Jltb/41W8M/N5sI7GE+fNf/LL4q/3X1fZvewcAAAAAYBRN9w2VIzOyxcjDXqoY2YFNjzyqIDmiXEFKRNZmGE31ez3mVae9Y+D7ppqP/v3nwrnv/8vwyje8fcF8ZdbamaSvv+m2ged/1p98oLgHAAAAAAAAAOprum+oHJkYVoz8l+/+oJiCtilIjiZXkJK1kl+ET//B7OfTiVf+InO/rLUwmup3e8wFf/nR4p7FxbM//dbRr1ww/wcu/ptiirXhrz7yyYHn/w9Xfqm4BwAAAAAAAADqa7pvqBxZ8Z3b7ho46L/cvOBFx4eXnPSG8Loz3xUuvuzjM4XLp/5rS/FXVr+du3aFjT99aKZQ+k/f/Hb4wpe/Fj55xdUDZcflJl4KjVm5gtRysunKt2S345m8+ORw3Ds+FD59xy/C9sy8MqkoR8pgGE36GTdqOTL65o23LJj/jLPOLe5dG17/lj8eeP4/+LcfFfcAAAAAAAAAQH1N9w2VIyteetJpAwf9m84b3vrucNud3y/+2urz9NZfh5tuuzNbamwqX/zqN4q/Rq4gtZwsWo6s5OA3XRM2bs8/hnQd5UgZDKNJP9fGKUdu275jwfxvfuefFfeufs8991z4n4cfN/fc//sLXxL2Tk0V9wIAAAAAAABAfU33DZUjK172yj8cKD20lXPOv2Tm7Iqrxa5du8Mtd3w3W2ZsOsqR83IFqeVkrhz5B9eETXO37wibf/Vk2HTf7eGyPz55bts95L23h82VeWVSUY7sS+7Y8K/ho3//ufCd2+7M3r9U9uzZE2669c6Zx7jvJxuz04wSRlN+lpUZpxz51OYtteZf6eKZm6vP/fdPfXNxD5MWP0OOP+WMgddnOTnmVaeHm2/fUDzq6mV9jWetrK+mnue4WSvbUd888uhjYf03bwz/eM0/hV8+/kRx67z4nXf1tddlf4+Okqu+8vWw6ZFHi0frn7u+d0/4vd9/7cyVLuK/j6ru+yRu73HcAAAAAAAAFtN031A5sqKpy2qPkpNe99aZs1CtdNt3PBM+/6X12YNCbaTPB5m6litILSf5cuRgNn6mPLvk68JlP8lPI11GObIviaXGMrfcsSE7zWK5+fa75ub/3FVfyU4zShhN+R1cZpxy4+V/f8WC+e/+4b3Fvavfdf9888BzP/8vLivuYdJe/po3D7w2dXLky19bPOrq1WQBzvoaL31eX02+j8bNWtiO+mJq376ZMmr192UsMqbqFCPLxN/IffWSk94wsA3+2QV/FXY8s7O4d7gmPg9s7wAAAAAALKXpvqFyZGL9dTdmB/HHOaNHPLBw/wMPz5Qt/+HKL81cTjv3mCf8wZlhampfMdfKEw8uDStGfuOfvxP+/d6fhJ/94pdh89NbZ6YdVTxTR+4xN/70oWIKolxBajkZpRy5d9eG8O7DZrfbE7+gjDf5KEf2JV/52vUDBclb/+W72elyiWXK6rzX33RrdrpRwmjK798yo5Yj7/ze3eG/HXr0wLxn/tF5xb1rw8WXfXzg+X/1GzcU9zBpypHjsb7Gs1bWl3Lk6hfPFvm5L351wW/MePbI1JfWf3PBdOOmz+XIo0543YLt8EXHvHpmf2cxTbxPbO8AAAAAACyl6b6hcmRGPDtSWoL4vw57aa1LQMWyZDwQUH3MmA9c/DfFFCvPt75964KDQPGy11ue3lpMMb54ZshPfPaqgcf8+Ge+EH760KZiCkq5gtRyMlI5slLGO+TSezP3S7dRjuxLtm/fEb74la8PlBxvG6EgWT1jZMw/ffPGsHv37uy0o4TRlN+9ZV512jsGvm/SfPhvPx1Oev3bFsx3/KvftCrO/jyOP3jTHw2sgwce+llxD5MWL3N63ClvHHh9lpNYerntzu8Xj7p6WV/jWSvrq6nnOW7WynY0SXunpmZ+x+e+52NZ8r+2PF1MOS/+z3rxd21unlESy5U//8Uvi0frn5/c/2D47ZeenN0m/+zCS4eeRbLu+8T2DgAAAADAKJruGypHDpEtSL7wJbUKkrFIcfJp7xh4zJh4cGKliQd70oNAX7/+prBv37PFFON7aNMjipFjyBWklpNxy5HHfeahgfu2/2pjuObD7wnHHXfC/Hb94pPDq89fH+55qvoYZZJi366nwz1Xvj8cdXhxW3JmyvEffz7bN90eLnvP2eHwFxfzHXZCOPz0j4ZrNj49ff+G8O7i8d59azLvrRcVf+uicEvxOBe+vvj7h31o5ra5aXftCBvvuCa8+/TXhUOK53DQIceGQ17znnDJt38RtlenLZM8/t5dT4a7rrwovPqoY4vbjwqHnDw9/9c2hs27knlnsrAcufme9dPLcEI4uJj/4KPeGE778O3h8ez80mRiQfILX/7aQNlxsYJkvK867Zf/6Vth165d2WlHDaMp31918qcf+Ks1V4x87rnnwv88/Li5dRD/Pd4GAH321H9tCZ+76isDvy/L3HjzHWHPGt6HivsyZ/3JBwb2ccrE4uRKHKMAAAAAAGB1aLpvqBy5iGEFyRu+c3sxxfi273hm5pJV1cd857kXFPeuHPFSstWDS/HMGgcOHCjuHV8sRsYiZPUxFSMXlytILScjlSO3fDOcWWyvZ12/Y+72x687b66MN5PDT6gUBON/nx0+vyl5rIFi38ZwywcHz1pSPRPi8h5/Nhu/cPYi854c3n3rN0crR266JpxYXFJ87ra5ae8Nlx1Xve+ocMhRlRLndA6/ZMPCgmT18bdsCO+de4xjp+efL0jGHPyma8LGBQXH6jp8KGwsX8Pp+Q+urp+Y1+fml6azbfv2cOXV1w6UHnMFybQYGS/luGP6eyGdbtwwmoH3xjISz5YU/yeJ559/vnjEteHBh38+sB5Oe9t7insAoL+u+srXB35fxvzD57/kN2bFP33z2+EFLzp+4Hs+5vhTziimAAAAAACAbjXdN1SOXML6625ccKAgJhYnl+uu792z4PFW0lmofr1t+4KDTLnLkY3q/gc3LXi8mI0/faiYgpxcQWo5Wboc+XS45fyiwHjY+8MNW+fvm5n3sDeGd19zd3i8cvv2Td8MZ72s2L7PvT0pB1aKfee+Pxw1Pf97v/1Q2J4p8C3v8feGzbdeFA6P903nuA/eHjZW5/3V3eHT66afT6XwOLwc+f5w1rlHhcPXXRPu+tV8KXQ+s2efPPz0j4cbNj49vxzxbJh/WxYWXxcu+0l1nunMPf7Z4bS3Tv/z5A+FGx6oPP7M2TTPm3sOhy+4lPn8Ojzq9W8Jh6frcPuT4ZZL5y95d+bXnkzmlzay9dfbFhQk/+W7/zp3f1qM/OwXvhy2bv31wGMsN4ymfE/UzalnvDP88rEnikdd/b72rZsGnv9lf/eZ4h4A6K942ez0N2YsR8bfn8yKV3/4f3538H/uivmdY19TTAEAAAAAAN1qum+oHDmCa79xw4KDBTGxLLBcrz797IHHuu6GW4p7+u/HGx8YOMB04y3/UtwzvliArD5WGcXIpeUKUsvJ0HLk9qfDpvu+GS58TXkmw2PDWd+Ol6OuzHvdNeGGYZe2LguA6WWoK8W+gw45Ibz75sHHrGZZj7/r3nBhUZw8/PwNYXP1vrk8HW547/xBwOHlyOn8wfT2OPTMi3eHz1/5UP7S2dUSaHKp8IHHf8XHwz3bK/dV8vi17ymme0+45lfV+6rrMJ4FM7cOnwyff1MxzXtuGrKM0nRiQfKKL351oAT53R/820xJsnrbp664Ojz1X5uzj7GcMJq5910DeeHvvSL87JFfFo+8un3w0r8deO7x7JkA0He/fPwJl9UeIv7PmWefc8HA93uZeFntu394bzElAAAAAAB0q+m+oXLkiIadQXK5l9hOz8J03oUfKu7pv1iKqB5YevhnjxT3jGfTI48OPE4ZxcjR5ApSy8lcOXKxHHZyOPPah7LzD028HPXM/G8Jnx649HWl2PeKT4f7qvOMk2GPf89HwyEzyzx4lssF+cmnw1Ez8y9ejjzr27kzRo6WW86ffYyDzt8weN+oj7/r7nDhi4vpKpczH1iHb1ofHq/OU8mmLxSv7Wum31eZ+6WdxLNBpgXJaj7x2S+Ex371RHbe5YbRlO+7Mq867R3FPcPF8sB3brsr/Mn5Fy+Y/5VveHs4cOBAMeXqlf4PHfEM0vTHTbfeOXP50+pr1EWOedXp4ebbNxRL0T/WS571kme9rF57p6YW/H4tE88s+dTmLcWU8zb9/Bfh6muvy84zSuLlvONv3b76yf0PzhQgc9vkn114adjxzM5iykF13ye2dwAAAAAARtF031A5cgzxUtr/7dCjBwb4X/A7Lw9bnh7/uT362K8GHuc1b3xncU//ffXr/zxw8GfYwZOl/NM3vz3wODH/56cPFveylFxBajlZrBx58FFvDKd9cP2QS0rPZ/tTD4W7vn17+PzHPxTe+56zw1G/f3I4ZO6y1cPLkYcsuFx0PuM8/sbPFJeTXvJsibOXxI7TDi9HpmdsHJKZs2xuCDdcd0245IMXhdNe87pw1FHlGTenM7Qc+f7w9cUKnNO54b2zj3HU326s3D6/Do/7zCKl1bm/c1Fy9k5pO7EgGc9UlBYjP/apK8Mjj/4yO0+dMJrZ98N8RilHVn3+S+sXPMaVV68v7l2dnnvuufA/futlc8/3d48/tbiHvnj5a948sE12mSNf/tpiKfrHesmzXvKsl9XvkUcfy15m+wtf/loxxbw6xcgycZ+hr37v91+7YDt80TGvDnd+7+5iirwmCsS2dwAAAAAAltJ031A5cky5M0g+/sR/FveObmpq38Bj/M5xrynu6b/00mTL9d0f/HDgcZwxcjy5gtRyMvSy2iNk+8b14axXVEqAlRxyVHnZ6uHlyBOvTC43nWQ5j1+erXHp4uUo5cglSoW7ng63fPgtlaJmJYefEA45vPj3oeXIpUuL+bNPjrgOlSMnmi1PPz1QkLz8k1eEnz74cHbaumE0s++H+Yxbjty379nwPw8/buAxXvHatxb3rk73P7hp4Pm+67wPFvfQF0pdedZLnvWSZ72sDfEskvHMhdXfoF/86jeKe+d9af03B6ZZTvpcjjz6FW8Y2AbPff9fjvQ/PDbxPrG9AwAAAACwlKb7hsqRyxDPnFgO7n/yiquLW8dXPUgQz9SwUnz689cMHPhZrj1794brbrh55rJjD21a3qW517JcQWo5WXY58oFrwolFKfDg11wUPn3dhnDfI0+Gx7cUZ5kc4bLaixb7lvn4ZZlw0TMqzqRuOfLp6b9VXI7usJPDaR9eH274/kPh8V89Hbbvmp1m6ctqj16OHCx7KkeulGze8nRYf90N4bNf+HL4ycYHstM0EUYz+36Yz7jlyOjYk4uz0xaJZ5Beza79xg0Dz/dzV321uIe+iJc5Pe6Uwe2yi8SSzG13fr9Yiv6xXvKslzzrZW35+S9+Ob1vNvs//D38s4W/Q+NltWNpsvqbd5zEcmX8G311/U23zWx/v3X0K8O/fPcHxa1Lq/s+sb0DAAAAADCKpvuGypHLdM+/3xf+7T/+d/Ff49u8ZevAgYKjTnhdcU//feYfvzxw8Gf//v3FPXQpV5BaTpZbjpwr7b339rA5c3/dcuRyH/+WD87Ot6CQmGbrTeGsmfmXWY6s/P2/eyBz/3TqlyOn19XrZx/jxC9U15VypAyG0cy+H+YzbjkyvcR0zGovR17wlx8deL4//NGPi3sAAAAAAAAAoFlN9w2VIyfk7h/eO1A2OO2t7ynu6b9r/ulbA+XIWPSke7mC1HKyvHLkfDlvQbGwzPc/Gg6Z2b6XU45c/uNv+kLxfF780XBXcQbHXLZ/+/2z0+X+xiilwnKaoevtyfD5N80+/vBy5OvCZfdVbk/zy/Xh1dnplCNlMIxm9v0wn3HLkbff9a8LHuNlr/zD4t7VKa6j8rn+9xe+ZOaSpAAAAAAAAADQhqb7hsqRE/KRT3xuoFxx4V9dXtzTfzfefMdAOfL//PTB4h66lCtILSd1y5GnXfvkwvt3PTR3xsO65cixH3+uUBgff8iltXdtDJe9opy/ZjnyxR8N92Tu3zx9/+HF4w8vR07nPTflz4xZvWz3Kz4d7hu4TzlSBsNo5t53RcYpRz606ZFw2FEnLXiMP7vw0mKK1SeeGbp6psyTXvfW4h4AAAAAAAAAaF7TfUPlyAl58cv/YKBcccN3bi/u6b97f7xxoBz51W/cUNxDl3IFqeWk7mW1D3rZeeHzP9kxd/v2X90dPr3u5OnbT65x5sg6j78j3PLBolR4yMnhzCvvDo9vn79/+wO3h/eePH3f699SXBa77mW1jwrHXbph/m/s2hE2fvtD4bjDTg6Hv2z2/uHlyBPCIS8+Khy+7ppw16/mn+PerQ+Fa947/xzee0flvpkoR8pgGM3s+2E+Lzrm1QPfZ2k++vefC2ecdW54w1vfPXPWxHT+mHg2ydUqft9Xn+v7Pvjh4h4AAAAAAAAAaF7TfUPlyAn4x2v+aaBsELNt+47i3v7b+uttCwok8YxadCtXkFpOlluOnCkHHlbZjg8/IRxyePHvLzsvXHPzPxblweWVI5f/+NOJZ5Z807Hz88a8eHr+8vGO+1C4ZcuG8O6Z+04IF96TzD9SqbBawpzNIUedMPfvx116d7imLHgOLUdeFK659UPh8HK5qs9xJieHM6/Nnf1SOVIGw2jm31vN5B3vOb945NXpA5d8ZOD5xv+mf2669c5w/ClnDLxWy8kxrzo93Hz7huJRVy/razxrZX019TzHzVrZjvpi089/Eb741W8s+C3bdOLfiH9rpYjb/7EnvzG7jTaZ+Dfi3wIAAAAAgMU03TdUjuzYHRv+dcFBgpV4Sc6vfeumgQNAn7zi6vDEfz5V3EsXcgWp5WTZ5ciYp+4Nnz//7PlC3+EnhFefvz7c89T0fXNnVlxmOTJmWY9fZNfT4b6vfTyc9poTwsEz0x0VDj7qjeG0D98eNs2c5bEsR2bmH7lUuCNs+vb03zh5vhR5yMnvCZd8+xdh+/T9c2e/XKQcGR9/+6bbwyXveON8efPFJ08/z2vCLZvSM0aWUY6UwTCa2fdDM3nFa98a9qzidf/162/KPudnn322mIK+ePlr3rzgtVpujnz5a4tHXb2aLMBZX+Olz+uryffRuFkL21FfXH3tdQO/YdtM/FsrxfGvflN222wj8W8BAAAAAMBimu4bKkd26J7/uC97gOCxx58oplg5YhEyPQAUC5K/evI/iyloW64gJWPkgX8Mx828B98TrvlV5v42o7QoDYfRvOB3Xj733Vsnf3L+xWH37j3Fo64e3771zvDe//Xh8LJX/mH2ecccdtRJ4Z3nXjBTnqQflCPHY32NZ62sL+XItUE5Mk85EgAAAACAPmm6b6gc2ZGpqX3ZUsZVX/56McXKs+Ff/23BQaBPf/6a4l7alitIyeh5/JqzZ9+Hv//pcF/m/lajHCkNh9FcefX68IIXHT/3HTxqXvh7rwhnn3NB+OJXvhEeefSx4tFWn6Nf8Ybs88/lo3//uWIuJi1eovS4U+pfDjWWw2678/vFo65e1td41sr6aup5jpu1sh31RbzU9VVf+fqC37BNZyVeVvulJ52W3UabjMtqAwAAAAAwiqb7hsqRHfrtl548cHDgrz/26eKelevm2zcMHAiKxRO6kZajZIw89c1wVnEJ66M+vjE/TZtRjpSGAwAAAAAAAACw0jXdN1SO7FA8S0IsRMVLUv7zTbcXt658P974QPjsF74S/v5zXwybHnm0uJW25QpSMptbLn1LePeVt4f7Hnk6bK/et/XJcN/XPhqOO7woKb/so+GeXZX7u4pypDQcAAAAAAAAAICVrum+oXJkx57avKX4t9Vn167dxb/RhVxBSmZzy/lF+XGxnPzRcMtT+flbj3KkNBwAAAAAAAAAgJWu6b6hciSsULmClMxm+682hms+flE47TUnh0OKy2fP5MUnh+Pe8aHw6TseCtsnccbIMsqR0nAAAAAAAAAAAFa6pvuGypGwQuUKUiKyNgMAAAAAAAAAsNI13TdUjoQVKleQEpG1GQAAAAAAAACAla7pvqFyJKxQuYKUiKzNAAAAAAAAAACsdE33DZUjYYXKFaREZG0GAAAAAAAAAGCla7pvqBwJK1SuICUiazMAAAAAAAAAACtd031D5UhYoaamprIlKRFZW4mfBQAAAAAAAAAAK13TfUPlSFih9u/fny1KicjaSvwsAAAAAAAAAABY6ZruGypHwgrm7JEiazvOGgkAAAAAAAAArBZN9w2VI2EFe/755xUkRdZo4ns/fgYAAAAAAAAAAKwGTfcNlSNhFYiX1VWSFFkbie91l9IGAAAAAAAAAFabpvuGypEAAAAAAAAAAADARDXdN1SOBAAAAAAAAAAAACaq6b6hciQAAAAAAAAAAAAwUU33DZUjAQAAAAAAAAAAgIlqum+oHAkAAAAAAAAAAABMVNN9Q+VIAAAAAAAAAAAAYKKa7hsqRwIAAAAAAAAAAAAT1XTfUDkSAAAAAAAAAAAAmKim+4bKkQAAAAAAAAAAAMBENd03VI4EAAAAAAAAAAAAJqrpvqFyJAAAAAAAAAAAADBRTfcNlSMBAAAAAAAAAACAiWq6b6gcCQAAAAAAAAAAAExU031D5UgAAAAAAAAAAABgopruGypHAgAAAAAAAAAAABPVdN9QORIAAAAAAAAAAACYqKb7hsqRAAAAAAAAAAAAwEQ13TdUjgQAAAAAAAAAAAAmqum+oXIkAAAAAAAAAAAAMFFN9w2VIwEAAAAAAAAAAICJarpv2Gk58sCB58L+AwfCvmf3h7379oV/++m28L+++Hg48cKHwyHvvD+84Kz/E37jHT8Jv3FWkXf8uEj89+p//zi84O3/e0F+4+33iYiIiIiIiIiIiIiIiIiIiIiIiEjDyXb2Kp2+BT2/uR7gT2a6gbEjGLuCsTMYu4OxQxi7hLFTGLuFad+wrk7Lkc8993zYv//AzJO56EtPhRe88+Hwm+98aDoPht88+6fTeWDmny846/7wgrNjNs6slNnEf6/+92x+c3rFiYiIiIiIiIiIiIiIiIiIiIiIiEg3SXt8C/p9sfsXO4Bn3T/QDZzpCr7zoZnuYOwQxi5h7BTGbmHaN6yr83JkbHie9fdPhBes+9n0k4zlyNm8YOYJxzw4k9945wPT+elsplfSbOK/lylvG575FS4iIiIiIiIiIiIiIiIiIiIiIiIioybXyVuYTKev7P2984G5PmDZDxzoDK772UyXMHYKV0E58rlw8TWbwwv+6OfTTyzmZ+E3120qMv+kZ5qhZ5crJa6g6UyvvNnEfx+WchoRERERERERERERERERERERERERaS65zl6ZYpqy7xe7f2fPniVyrhcYO4JFXzB2B2c6hH/085lOYewWpn3DujotR977sz1FKXL2ScV/vu5Dj4Xb730m7Ny9Lzz77LNh377ZTE3tC3v3ToW9U7PZs3fvTHbv2VNJ/O+9YdfuPSIiIiIiIiIiIiIiIiIiIiIiIiLScsreXrXLV/b7yr5f7P7FDmDZB4zdwNgRjF3B2BmsdghjYrcw7RvW1Wk58uIvbw6/ue6RuSf22g8/Hnbt3R/2759NXAFpQbJakixXYJnqyhURERERERERERERERERERERERGRbpL2+aqlyLQYGVP2BGNnMHYHy3Jk7BTGbmHaN6yr03LkSRc9Pv1E5tuet//vnWH/gQOzGaUgmTmTpIiIiIiIiIiIiIiIiIiIiIiIiIh0n7LPV/b7lipGln3B2B0se4SxUxi7hWnfsK5Oy5GHvmv2iZRnj9w9VRQjlyhIVkuSA0XJSllSRERERERERERERERERERERERERDpIpcNX7fZVO3/DipExsTs4W4x8ZKZTGLuFad+wrk7Lkb/5R7NPpCxIHjjwXDjw3HMDTzotSM6WJOdXWnVFjpPqiyEiIiIiIiIiIiIiIiIiIiIiIiIig8l170bJfCly30D3L1eMjJ3B2B0si5Ez+aNHFvQN65pgOfLns+XIRQqS+ZLkYLu0mtxKFxEREREREREREREREREREREREZF6yXX2ZjPb66t2/aodwGo3sCxGzpYj57uEq6McWSlIPld5oosVJGOqKy7NfGkyTfoiiIiIiIiIiIiIiIiIiIiIiIiIiMjSyXXyBkuQadLeX7UTWC1Gxu5gtRi5esqRRUEyPsG0ILlUSbJMbsWKiIiIiIiIiIiIiIiIiIiIiIiISDfJdftmUukAlr3AajFyrhxZ6RSmfcO6JleOnE75JGfz/OIlyTK5FSkiIiIiIiIiIiIiIiIiIiIiIiIik0mm67ewFPn8QGcw7ROmfcO6JlqOfP75wSc7UJCslCSHFiVFREREREREREREREREREREREREpBepdv6qXcC0GBm7g2mfMO0b1jXxcuTCgmRMUpKMmb49TW7lioiIiIiIiIiIiIiIiIiIiIiIiEi7yXX60t5fWoqMKXuDaZ8w7RvW1YtyZJl0Jcwm3p4pS1YzPZ2IiIiIiIiIiIiIiIiIiIiIiIiItJxch69I2ffLdQHTvmDaJ0z7hnV1XI78xcCTSZ9smdyKmU+58gaTW9EiIiIiIiIiIiIiIiIiIiIiIiIi0kxy3b3ZpD2/+eQ6gjHVLmHsFqZ9w7omUI6cL0jmnnA1uRUlIiIiIiIiIiIiIiIiIiIiIiIiIv1OrhNYTbUYuYrKkbPJPeFRkluRIiIiIiIiIiIiIiIiIiIiIiIiItJtch2/UZL2CdO+YV0TLUdGuSctIiIiIiIiIiIiIiIiIiIiIiIiIqszUdonTPuGdU28HFnKrQARERERERERERERERERERERERERWR2pSvuEad+wrt6UI6tyK0VEREREREREREREREREREREREREVlaGSfuEad+wrl6WI3NyK63MSz7TbHJ/Q0RERERERERERERERERERERERGSlJdeRq5Pc3ygzjrRPmPYN61ox5cjFvOSzzQYAAAAAAAAAAABWg1xHrk6akvYJ075hXcqRmQAAAAAAAAAAAMBqkOvI1UlT0j5h2jesSzkyEwAAAAAAAAAAAFgNch25OmlK2idM+4Z1KUdmcuMDIiIiIiIiIiIiIiIiIiIiIiIiIis/uY5cnTQl7ROmfcO6lCMzyW0gIiIiIiIiIiIiIiIiIiIiIiIiIistuY5cnTQl7ROmfcO6lCMzyW0gIiIiIiIiIiIiIiIiIiIiIiIiIistuY5cnTQl7ROmfcO6lCMzyW0gIiIiIiIiIiIiIiIiIiIiIiIiIistuY5cnTQl7ROmfcO6lCMzyW0gIiIiIiIiIiIiIiIiIiIiIiIiIistuY5cnTQl7ROmfcO6lCMzyW0gIiIiIiIiIiIiIiIiIiIiIiIiIistuY5cnTQl7ROmfcO6lCMz+Y//+A8RERERERERERERERERERERERGRFZ9cR65OmpL2CdO+YV3KkZnkNhARERERERERERERERERERERERGRlZZcR65OmpL2CdO+YV3KkZkAAAAAAO0qB2YBAAAAgHblOnJ10pS0T5j2DetSjswEAAAAAGiXciQAAAAAdCPXkauTpqR9wrRvWJdyZCYAAAAAQLuUIwEAAACgG7mOXJ00Je0Tpn3DupQjMwEAAAAA2qUcCQAAAADdyHXk6qQpaZ8w7RvWpRyZCQAAAADQLuVIAAAAAOhGriNXJ01J+4Rp37Au5chMAAAAAIB2KUcCAAAAQDdyHbk6aUraJ0z7hnUpR2YCAAAAALRLORIAAAAAupHryNVJU9I+Ydo3rEs5MhMAAAAAoF3KkQAAAADQjVxHrk6akvYJ075hXauiHJm68YF8DLgCAAAAQD8YqwMAAACAfijH6nKdu5i2pH3CtG9Yl3IkAAAAANA5Y3UAAAAA0A/lWF2ucxfTlrRPmPYN61KOBAAAAAA6Z6wOAAAAAPqhHKvLde5i2pL2CdO+YV3KkQAAAABA54zVAQAAAEA/lGN1uc5dTFvSPmHaN6xLORIAAAAA6JyxOgAAAADoh3KsLte5i2lL2idM+4Z1KUcCAAAAAJ0zVgcAAAAA/VCO1eU6dzFtSfuEad+wLuVIAAAAAKBzxuoAAAAAoB/Ksbpc5y6mLWmfMO0b1qUcCQAAAAB0zlgdAAAAAPRDOVaX69zFtCXtE6Z9w7qUIwEAAACAzhmrAwAAAIB+KMfqcp27mLakfcK0b1iXciQAAAAA0DljdQAAAADQD+VYXa5zF9OWtE+Y9g3rUo4EAAAAADpnrA4AAAAA+qEcq8t17mLakvYJ075hXcqRAAAAAEDnjNUBAAAAQD+UY3W5zl1MW9I+Ydo3rEs5EgAAAADonLE6AAAAAOiHcqwu17mLaUvaJ0z7hnUpRwIAAAAAnTNWBwAAAAD9UI7V5Tp3MW1J+4Rp37Au5UgAAAAAoHPG6gAAAACgH8qxulznLqYtaZ8w7RvWpRwJAAAAAHTOWB0AAAAA9EM5Vpfr3MW0Je0Tpn3DupQjAQAAAIDOGasDAAAAgH4ox+pynbuYtqR9wrRvWJdyJAAAAADQOWN1AAAAANAP5VhdrnMX05a0T5j2DetSjgQAAAAAOmesDgAAAAD6oRyry3XuYtqS9gnTvmFdypEAAAAAQOeM1QEAAABAP5RjdbnOXUxb0j5h2jesSzkSAAAAAOicsToAAAAA6IdyrC7XuYtpS9onTPuGdSlHAgAAAACdM1YHAAAAAP1QjtXlOncxbUn7hGnfsC7lSAAAAACgc8bqAAAAAKAfyrG6XOcupi1pnzDtG9alHAkAAAAAdM5YHQAAAAD0QzlWl+vcxbQl7ROmfcO6lCMBAAAAgM4ZqwMAAACAfijH6nKdu5i2pH3CtG9Yl3IkAAAAANA5Y3UAAAAA0A/lWF2ucxfTlrRPmPYN61KOBAAAAAA6Z6wOAAAAAPqhHKvLde5i2pL2CdO+YV3KkQAAAABA54zVAQAAAEA/lGN1uc5dTFvSPmHaN6xLORIAAAAA6JyxOgAAAADoh3KsLte5i2lL2idM+4Z1KUcCAAAAAJ0zVgcAAAAA/VCO1eU6dzFtSfuEad+wLuVIAAAAAKBzxuoAAAAAoB/Ksbpc5y6mLWmfMO0b1qUcCQAAAAB0zlgdAAAAAPRDOVaX69zFtCXtE6Z9w7qUIwEAAACAzhmrAwAAAIB+KMfqcp27mLakfcK0b1iXciQAAAAA0DljdQAAAADQD+VYXa5zF9OWtE+Y9g3rUo4EAAAAADpnrA4AAAAA+qEcq8t17mLakvYJ075hXcqRAAAAAEDnjNUBAAAAQD+UY3W5zl1MW9I+Ydo3rEs5EgAAAADonLE6AAAAAOiHcqwu17mLaUvaJ0z7hnUpRwIAAAAAnTNWBwAAAAD9UI7V5Tp3MW1J+4Rp37Au5UgAAAAAoHPG6gAAAACgH8qxulznLqYtaZ8w7RvWpRwJAAAAAHTOWB0AAAAA9EM5Vpfr3MW0Je0Tpn3DupQjAQAAAIDOGasDAAAAgH4ox+pynbuYtqR9wrRvWJdyJAAAAADQOWN1AAAAANAP5VhdrnMX05a0T5j2DetSjgQAAAAAOmesDgAAAAD6oRyry3XuYtqS9gnTvmFdypEAAAAAQOeM1QEAAABAP5RjdbnOXUxb0j5h2jesSzkSAAAAAOicsToAAAAA6IdyrC7XuYtpS9onTPuGdSlHAgAAAACdM1YHAAAAAP1QjtXlOncxbUn7hGnfsC7lSAAAAACgc8bqAAAAAKAfyrG6XOcupi1pnzDtG9alHAkAAAAAdM5YHQAAAAD0QzlWl+vcxbQl7ROmfcO6lCMBAAAAgM4ZqwMAAACAfijH6nKdu5i2pH3CtG9Yl3IkAAAAANA5Y3UAAAAA0A/lWF2ucxfTlrRPmPYN61KOBAAAAAA6Z6wOAAAAAPqhHKvLde5i2pL2CdO+YV3KkQAAAABA54zVAQAAAEA/lGN1uc5dTFvSPmHaN6xLORIAAAAA6JyxOgAAAADoh3KsLte5i2lL2idM+4Z1KUcCAAAAAJ0zVgcAAAAA/VCO1eU6dzFtSfuEad+wLuVIAAAAAKBzxuoAAAAAoB/Ksbpc5y6mLWmfMO0b1qUcCQAAAAB0zlgdAAAAAPRDOVaX69zFtCXtE6Z9w7qUIwEAAACAzhmrAwAAAIB+KMfqcp27mLakfcK0b1iXciQAAAAA0DljdQAAAADQD+VYXa5zF9OWtE+Y9g3rUo4EAAAAADpnrA4AAAAA+qEcq8t17mLakvYJ075hXcqRAAAAAEDnjNUBAAAAQD+UY3W5zl1MW9I+Ydo3rEs5EgAAAADonLE6AAAAAOiHcqwu17mLaUvaJ0z7hnUpRwIAAAAAnTNWBwAAAAD9UI7V5Tp3MW1J+4Rp37CuNVmOFBEREREREREREREREREREREREZH55Dp3MW1J+4Rp37Au5UgRERERERERERERERERERERERGRNZ5c5y6mLWmfMO0b1uWy2gAAAABA54zVAQAAAEA/lGN1uc5dTFvSPmHaN6xLORIAAAAA6JyxOgAAAADoh3KsLte5i2lL2idM+4Z1KUcCAAAAAJ0zVgcAAAAA/VCO1eU6dzFtSfuEad+wLuVIAAAAAKBzxuoAAAAAoB/Ksbpc5y6mLWmfMO0b1qUcCQAAAAB0zlgdAAAAAPRDOVaX69zFtCXtE6Z9w7qUIwEAAACAzhmrAwAAAIB+KMfqcp27mLakfcK0b1iXciQAAAAA0DljdQAAAADQD+VYXa5zF9OWtE+Y9g3rUo4EAAAAADpnrA4AAAAA+qEcq8t17mLakvYJ075hXcqRAAAAAEDnjNUBAAAAQD+UY3W5zl1MW9I+Ydo3rEs5EgAAAADonLE6AAAAAOiHcqwu17mLaUvaJ0z7hnUpRwIAAAAAnTNWBwAAAAD9UI7V5Tp3MW1J+4Rp37Au5UgAAAAAoHPG6gAAAACgH8qxulznLqYtaZ8w7RvWpRwJAAAAAHTOWB0AAAAA9EM5Vpfr3MW0Je0Tpn3DupQjAQAAAIDOGasDAAAAgH4ox+pynbuYtqR9wrRvWJdyJAAAAADQOWN1AAAAANAP5VhdrnMX05a0T5j2DetSjgQAAAAAOmesDgAAAAD6oRyry3XuYtqS9gnTvmFdypEAAAAAQOeM1QEAAABAP5RjdbnOXUxb0j5h2jesSzkSAAAAAOicsToAAAAA6IdyrC7XuYtpS9onTPuGdSlHAgAAAACdM1YHAAAAAP1QjtXlOncxbUn7hGnfsC7lSAAAAACgc8bqAAAAAKAfyrG6XOcupi1pnzDtG9alHAkAAAAAdM5YHQAAAAD0QzlWl+vcxbQl7ROmfcO6lCMBAAAAgM4ZqwMAAACAfijH6nKdu5i2pH3CtG9Yl3IkAAAAANA5Y3UAAAAA0A/lWF2ucxfTlrRPmPYN61KOBAAAAAA6Z6wOAAAAAPqhHKvLde5i2pL2CdO+YV3KkQAAAABA54zVAQAAAEA/lGN1uc5dTFvSPmHaN6xLORIAAAAA6JyxOgAAAADoh3KsLte5i2lL2idM+4Z1KUcCAAAAAJ0zVgcAAAAA/VCO1eU6dzFtSfuEad+wLuVIAAAAAKBzxuoAAAAAoB/Ksbpc5y6mLWmfMO0b1qUcCQAAAAB0zlgdAAAAAPRDOVaX69zFtCXtE6Z9w7qUIwEAAACAzhmrAwAAAIB+KMfqcp27mLakfcK0b1iXciQAAAAA0DljdQAAAADQD+VYXa5zF9OWtE+Y9g3rUo4EAAAAADpnrA4AAAAA+qEcq8t17mLakvYJ075hXcqRAAAAAEDnjNUBAAAAQD+UY3W5zl1MW9I+Ydo3rEs5EgAAAADonLE6AAAAAOiHcqwu17mLaUvaJ0z7hnUpRwIAAAAAnTNWBwAAAAD9UI7V5Tp3MW1J+4Rp37Au5UgAAAAAoHPG6gAAAACgH8qxulznLqYtaZ8w7RvWpRwJAAAAAHTOWB0AAAAA9EM5Vpfr3MW0Je0Tpn3DupQjAQAAAIDOGasDAAAAgH4ox+pynbuYtqR9wrRvWJdyJAAAAADQOWN1AAAAANAP5VhdrnMX05a0T5j2DetSjgQAAAAAOmesDgAAAAD6oRyry3XuYtqS9gnTvmFdypEAAAAAQOeM1QEAAABAP5RjdbnOXUxb0j5h2jesSzkSAAAAAOicsToAAAAA6IdyrC7XuYtpS9onTPuGdSlHAgAAAACdM1YHAAAAAP1QjtXlOncxbUn7hGnfsC7lSAAAAACgc8bqAAAAAKAfyrG6XOcupi1pnzDtG9alHAkAAAAAdM5YHQAAAAD0QzlWl+vcxbQl7ROmfcO6lCMBAAAAgM4ZqwMAAACAfijH6nKdu5i2pH3CtG9Yl3IkAAAAANA5Y3UAAAAA0A/lWF2ucxfTlrRPmPYN61KOBAAAAAA6Z6wOAAAAAPqhHKvLde5i2pL2CdO+YV3KkQAAAABA54zVAQAAAEA/lGN1uc5dTFvSPmHaN6xLORIAAAAA6JyxOgAAAADoh3KsLte5i2lL2idM+4Z1KUcCAAAAAJ0zVgcAAAAA/VCO1eU6dzFtSfuEad+wLuVIAAAAAKBzxuoAAAAAoB/Ksbpc5y6mLWmfMO0b1qUcCQAAAAB0zlgdAAAAAPRDOVaX69zFtCXtE6Z9w7qUIwEAAACAzhmrAwAAAIB+KMfqcp27mLakfcK0b1iXciQAAAAA0DljdQAAAADQD+VYXa5zF9OWtE+Y9g3rUo4EAAAAADpnrA4AAAAA+qEcq8t17mLakvYJ075hXcqRAAAAAEDnjNUBAAAAQD+UY3W5zl1MW9I+Ydo3rEs5EgAAAADonLE6AAAAAOiHcqwu17mLaUvaJ0z7hnUpRwIAAAAAnTNWBwAAAAD9UI7V5Tp3MW1J+4Rp37Au5UgAAAAAoHPG6gAAAACgH8qxulznLqYtaZ8w7RvWpRwJAAAAAHTOWB0AAAAA9EM5Vpfr3MW0Je0Tpn3DupQjAQAAAIDOGasDAAAAgH4ox+pynbuYtqR9wrRvWJdyJAAAAADQOWN1AAAAANAP5VhdrnMX05a0T5j2DetSjgQAAAAAOmesDgAAAAD6oRyry3XuYtqS9gnTvmFdypEAAAAAQOeM1QEAAABAP5RjdbnOXUxb0j5h2jesSzkSAAAAAOicsToAAAAA6IdyrC7XuYtpS9onTPuGdSlHAgAAAACdM1YHAAAAAP1QjtXlOncxbUn7hGnfsC7lSAAAAACgc8bqAAAAAKAfyrG6XOcupi1pnzDtG9alHAkAAAAAdM5YHQAAAAD0QzlWl+vcxbQl7ROmfcO6lCMBAAAAgM4ZqwMAAACAfijH6nKdu5i2pH3CtG9Yl3IkAAAAANA5Y3UAAAAA0A/lWF2ucxfTlrRPmPYN61qT5UgRERERERERERERERERERERERERmU+ucxfTlrRPmPYN61KOFBEREREREREREREREREREREREVnjyXXuYtqS9gnTvmFdLqsNAAAAAHTOWB0AAAAA9EM5Vpfr3MW0Je0Tpn3DupQjAQAAAIDOGasDAAAAgH4ox+pynbuYtqR9wrRvWJdyJAAAAADQOWN1AAAAANAP5VhdrnMX05a0T5j2DetSjgQAAAAAOmesDgAAAAD6oRyry3XuYtqS9gnTvmFdypEAAAAAQOeM1QEAAABAP5RjdbnOXUxb0j5h2jesSzkSAAAAAOicsToAAAAA6IdyrC7XuYtpS9onTPuGdSlHAgAAAACdM1YHAAAAAP1QjtXlOncxbUn7hGnfsC7lSAAAAACgc8bqAAAAAKAfyrG6XOcupi1pnzDtG9alHAkAAAAAdM5YHQAAAAD0QzlWl+vcxbQl7ROmfcO6lCMBAAAAgM4ZqwMAAACAfijH6nKdu5i2pH3CtG9Yl3IkAAAAANA5Y3UAAAAA0A/lWF2ucxfTlrRPmPYN61KOBAAAAAA6Z6wOAAAAAPqhHKvLde5i2pL2CdO+YV3KkQAAAABA54zVAQAAAEA/lGN1uc5dTFvSPmHaN6xLORIAAAAA6JyxOgAAAADoh3KsLte5i2lL2idM+4Z1KUcCAAAAAJ0zVgcAAAAA/VCO1eU6dzFtSfuEad+wLuVIAAAAAKBzxuoAAAAAoB/Ksbpc5y6mLWmfMO0b1qUcCQAAAAB0zlgdAAAAAPRDOVaX69zFtCXtE6Z9w7qUIwEAAACAzhmrAwAAAIB+KMfqcp27mLakfcK0b1iXciQAAAAA0DljdQAAAADQD+VYXa5zF9OWtE+Y9g3rUo4EAAAAADpnrA4AAAAA+qEcq8t17mLakvYJ075hXcqRAAAAAEDnjNUBAAAAQD+UY3W5zl1MW9I+Ydo3rEs5EgAAAADonLE6AAAAAOiHcqwu17mLaUvaJ0z7hnUpRwIAAAAAnTNWBwAAAAD9UI7V5Tp3MW1J+4Rp37Au5UgAAAAAoHPG6gAAAACgH8qxulznLqYtaZ8w7RvWpRwJAAAAAHTOWB0AAAAA9EM5Vpfr3MW0Je0Tpn3DupQjAQAAAIDOGasDAAAAgH4ox+pynbuYtqR9wrRvWJdyJAAAAADQOWN1AAAAANAP5VhdrnMX05a0T5j2DetSjgQAAAAAOmesDgAAAAD6oRyry3XuYtqS9gnTvmFdypEAAAAAQOeM1QEAAABAP5RjdbnOXUxb0j5h2jesSzkSAAAAAOicsToAAAAA6IdyrC7XuYtpS9onTPuGdSlHAgAAAACdM1YHAAAAAP1QjtXlOncxbUn7hGnfsC7lSAAAAACgc8bqAAAAAKAfyrG6XOcupi1pnzDtG9alHAkAAAAAdM5YHQAAAAD0QzlWl+vcxbQl7ROmfcO6lCMBAAAAgM4ZqwMAAACAfijH6nKdu5i2pH3CtG9Yl3IkAAAAANA5Y3UAAAAA0A/lWF2ucxfTlrRPmPYN61KOBAAAAAA6Z6wOAAAAAPqhHKvLde5i2pL2CdO+YV3KkQAAAABA54zVAQAAAEA/lGN1uc5dTFvSPmHaN6xLORIAAAAA6JyxOgAAAADoh3KsLte5i2lL2idM+4Z1KUcCAAAAAJ0zVgcAAAAA/VCO1eU6dzFtSfuEad+wLuVIAAAAAKBzxuoAAAAAoB/Ksbpc5y6mLWmfMO0b1qUcCQAAAAB0zlgdAAAAAPRDOVaX69zFtCXtE6Z9w7qUIwEAAACAzhmrAwAAAIB+KMfqcp27mLakfcK0b1iXciQAAAAA0DljdQAAAADQD+VYXa5zF9OWtE+Y9g3rUo4EAAAAADpnrA4AAAAA+qEcq8t17mLakvYJ075hXcqRAAAAAEDnjNUBAAAAQD+UY3W5zl1MW9I+Ydo3rEs5EgAAAADonLE6AAAAAOiHcqwu17mLaUvaJ0z7hnUpRwIAAAAAnTNWBwAAAAD9UI7V5Tp3MW1J+4Rp37Au5UgAAAAAoHPG6gAAAACgH8qxulznLqYtaZ8w7RvWpRwJAAAAAHTOWB0AAAAA9EM5Vpfr3MW0Je0Tpn3DupQjAQAAAIDOGasDAAAAgH4ox+pynbuYtqR9wrRvWJdyJAAAAADQOWN1AAAAANAP5VhdrnMX05a0T5j2DetSjgQAAAAAOmesDgAAAAD6oRyry3XuYtqS9gnTvmFdypEAAAAAQOeM1QEAAABAP5RjdbnOXUxb0j5h2jesSzkSAAAAAOicsToAAAAA6IdyrC7XuYtpS9onTPuGdSlHAgAAAACdM1YHAAAAAP1QjtXlOncxbUn7hGnfsC7lSAAAAACgc8bqAAAAAKAfyrG6XOcupi1pnzDtG9alHAkAAAAAdM5YHQAAAAD0QzlWl+vcxbQl7ROmfcO6lCMBAAAAgM4ZqwMAAACAfijH6nKdu5i2pH3CtG9Yl3IkAAAAANA5Y3UAAAAA0A/lWF2ucxfTlrRPmPYN61KOBAAAAAA6Z6wOAAAAAPqhHKvLde5i2pL2CdO+YV3KkQAAAABA54zVAQAAAEA/lGN1uc5dTFvSPmHaN6xLORIAAAAA6JyxOgAAAADoh3KsLte5i2lL2idM+4Z1rYpy5Es+22wAAAAAgHYpRwIAAABAN3IduTppStonTPuGdSlHZgIAAAAAtEs5EgAAAAC6kevI1UlT0j5h2jesSzkyEwAAAACgXcqRAAAAANCNXEeuTpqS9gnTvmFdypGZAAAAAADtUo4EAAAAgG7kOnJ10pS0T5j2DetSjswEAAAAAGiXciQAAAAAdCPXkauTpqR9wrRvWJdyZCYAAAAAQLuUIwEAAACgG7mOXJ00Je0Tpn3DupQjMwEAAAAA2qUcCQAAAADdyHXk6qQpaZ8w7RvWpRyZCQAAAADQLuVIAAAAAOhGriNXJ01J+4Rp37Au5chMyoFZERERERERERERERERERERERERkZWcXEeuTpqS9gnTvmFdypGZ5DYQERERERERERERERERERERERERkZWWXEeuTpqS9gnTvmFdypGZ3PiAiIiIiIiIiIiIiIiIiIiIiIiIyMpPriNXJ01J+4Rp37Au5chMchuIiIiIiIiIiIiIiIiIiIiIiIiIyEpLriNXJ01J+4Rp37Au5chMchuIiIiIiIiIiIiIiIiIiIiIiIiIyEpLriNXJ01J+4Rp37Au5chMchuIiIiIiIiIiIiIiIiIiIiIiIiIyEpLriNXJ01J+4Rp37Au5chMchuIiIiIiIiIiIiIiIiIiIiIiIiIyEpLriNXJ01J+4Rp37Au5chMchuIiIiIiIiIiIiIiIiIiIiIiIiIyEpLriNXJ01J+4Rp37Au5chMAAAAAIB27dmzZyYAAAAAQLtyHbk6aUraJ0z7hnUpR2YCAAAAALQnliLLMUMFSQAAAABoV64jVydNSfuE1a5hTF3KkZkAAAAAAO2oFiPLKEgCAAAAQHtyHbk6aUraJ0zHDetSjswEAAAAAGherhhZRkESAAAAANqR68jVSVPSPmE6ZljXqihHAgAAAAD9lhYj9+7dO5PqbQqSAAAAALB2pH3C6lhhTF3KkQAAAABAq3LFyJKCJAAAAACsTWmfsDpOGFOXciQAAAAA0JrFipElBUkAAAAAWHvSPmF1jDCmLuVIAAAAAKAVoxQjSwqSAAAAALC2pH3C6vhgTF3KkQAAAABA48YpRpYUJAEAAABg7Uj7hNWxwZi6lCMBAABgEc8//7yIiIyZ5RQjS7mCZO5viIjI4gEAAIC+S/uE1XHBmLqUIwEAACCRO7gsIiKjpU4xsqQgKSLSbAAAAKCP0j5hdUwwpi7lSAAAAJiWO4gsIiLjpYliZElBUkSknQAAAEBfpH3C6nhgTF3KkQAAAKxZuYPFo+S5554TEZEku3fvHhgLrFOMLKUFyfg3cn9bRGStJ7fPOkoAAABgktI+YXUsMKYu5UgAAADWpNzB4VyqB50PHDiQJN4mIiJtFCNLuYJkbhlERNZmBvdPq/uuuX3bXAAAAGBS0j5hdRwwpi7lSAAAANac3EHhanJFyP375/Pss/tns19ERHbt2jUwBthkMbKUFiTj38wti4jImkuxX1rdV033Y0cpSgIAAMAkpH3C6hhgTF3KkQAAAKwZuQPB1VRLkbMlyANh37P7w759z07/89kwtW/f0OydmhIRWXN5ZufOgfG/NoqRpbQgGf92bplERFZ7cvuiZeI+6+y+ayxNDpYllSQBAADom7RPWB3/i6lLORIAAIA1IXfwNyYeJJ4vRT43cwA5HkyOB5fjwefde/aGXXv2hGd27Qo7du4MO3fuWjTPPLNTRGRNZNu27QNjf20WI0tpQTIuQ27ZRERWY3L7ntXEfdW4zxr3XeM+bFmkjPu2syXJ2X3ecv83t28cAwAAAF1J+4TVsb+YupQjAQAAWPVyB31j5ouRs9m3b7YUuWfv1MxB5R3P7Azbtm8PW3+9LTy99ddhy5atYfOWp4fmvzZvERFZE9ky/ZlXHffrohhZSguScVlyyygishqT2wctE/dV4z5r3HeN+7BxXzbu08Z925mS5PS+brnfqyAJAABAH6R9wuq4X0xdypEAAACsarmDvTHVYuSz8dLZ+/fPnF1n5+7dYceOZ+YKkTMHmp9+evq/B3/jiojIbLosRpbSgqSIiMwm7rPGfde4D1sWJeO+bdzHjfu6cZ837vsqSAIAANAHaZ8w/Z1bl3IkAAAAq1buIG95EPi5556fubzgs/v3h6lnn5259OAzO+OZIncUZ9/ZsuB3rYiIDGYSxciSgqSIyNKJ+7Rx3zbu48Z93bjPG/d94z5w3BeO+8SLlSQBAACgTWmfMP1dW5dyJAAAAKtS7uBuWozcf+DAzNlz9uzZG3bu3DVzdp14ucLqb9ndu3eHZ599dmY+AADos7jPGvdd4z5sdZ827uPGfd24zxv3feM+cNwXVpAEAABgktI+YfW3bExdypEAAACsOrmDuuUB33jwN15GMB4Mntr37MyZx3Y888zcJbTL37DxgHKcHgAAVqK4L1stSZaX2o77vnEfOO4Lx33i2UtsK0gCAADQvbRPWP6GLVOXciQAAACrTnowtzzQWy1G7nv22TA1NRV27toVfr1t+8AZI+PtAACwGsR923I/d2afd3rfN+4Dx9vjPvEoBUkAAABoQ9onLH+/lqlLORIAAIBVJT2QG1MtRh6Y/vdn9++fORC8e/eesE0xEgCAVS4tSMZ94LgvHPeJ475x3EeuFiRz+9QAAADQtLRPWP52LVOXciQAAACrRu4gbq4Y+eyzs5fTfmbnzrDl6a1zl9OOlx0EAIDVqLzEdtz3jfvAcV847hPHfWMFSQAAACYh7RNWu4YxdSlHAgAAsCrkDt7OFiNnD/LGg73xkoH79+8PU1P7Zg4Ob9++I2zesnXud2ucFgAAVqO4r1vu98Z94LgvHPeJ475x3Eeeubx2se9c7kfn9rEBAACgKWmfsPzdWqYu5UgAAABWhfSgbXlAd+askfEgb8yBA7NnjZyaCjt37gpPb529rGD8zeqskQAArHbl2SPjPnDcF477xHHfOO4jx33lcr+5PHtkriAJAAAATUn7hNWuYUxdypEAAACsCulB27liZHHWyHiwN54Rp7yk9o5nds6cMWfzltlyZLwdAABWs7jPG/d94z5w3BeO+8TlpbXjvvJcQXKRy2sDAABAU9I+YbVrGFOXciQAAAArXnrANqZ61siZSwQW5cipqamwZ8/esG37juKMObOX1Y7TAwDAahb3eeO+b9wHjvvCcZ847hvHfeSyHFleXntYOTIGAAAAmpD2Catdw5i6lCMBAABY8dKDtXPFyOSskfv27Qt7906FXbt2h63btoX/fGrz3G9WAABYC8r937gvHPeJ475x3EeO+8rOHgkAAECX0j5h+Zu1TF3KkQAAAKx46cHauXLk9D+rZ42cK0fu3h1+vW17eOI//2vuNysAAKwF5f7vzL7w9D5x3DdOy5FLnT0SAAAAmpD2CcvfrGXqUo4EAABgRUsP1M4WI2fPdFM9a+Szzz4bpqb2zVw2cOeuXWHrr7cpRwIAsOaU+79xXzjuE8d949lLa++b2WdeePbI2aT73QAAAFBX2icsf7OWqUs5EgAAgBUtPUg7e/B29qyR2XLk3r3hmZ07w9Nbt4Unnnxq7jcrAACsBeX+b9wXjvvEcd847iNny5HFvrVyJAAAAG1I+4Tlb9YydSlHAgAAsKKlB2mr5cjqJbWffXb/zOUCd+/ZM3MAeOvWbeFXT/zn3G9WAABYC8r937gvHPeJ475x3EeO+8pxn7ksR7q0NgAAAG1L+4Tlb9YydSlHAgAAsKJVD9DOFiNnL/+XnjVy375n58qRO56ZLUc+/qsn536zAgDAWlDu/8Z94bhPHPeNy3Jk3Gce9dLaAAAAUFfaJyx/s5apSzkSAACAFa16gHbJcuTUVNi1e/fMAeCnn/51ePwJ5UgAANaWcv837gvHfeK4bxz3keO+snIkAAAAXUr7hOVv1jJ1KUcCAACwYlUPzsbMHrTNX1J7ampf2LN372w5csczMweCH3PmSAAA1phy/zfuC8+UI6f3jeM+ctxXjvvMLq0NAABAV9I+YfmbtUxdypEAAACsWOnB2bQcWT1rZFmO3Llrthy55emtypEAAKw55f5v3BeO+8Rx3zjuI5flyOrZI5UjAQAAaFPaJyx/s5apSzkSAACAFSs9OFstR6aX1J7aty/s3rNn5sDv9u07Zg4E//LxJ+Z+swIAwFpQ7v/GfeG4Txz3jeM+ctxXjvvMuUtrK0cCAADQhrRPWP5mLVOXciQAAAArVvXA7GwxMpYipzNCOXLzlqeVIwEAWHPK/d+4Lxz3iUcpR8Z97HJ/u7oPDgAAAHWkfcLyN2uZupQjAQAAWLGqB2aXKkfunZqaLUfu3FWUI7eGRx/71dxvVgAAWAvK/d+4Lxz3iWfKkdP7yHFfOe4zK0cCAADQlbRPWP5mLVOXciQAAAArVvXA7DjlyG3btitHAgCwJpX7v2U5Mu4bK0cCAAAwCWmfsPzNWqYu5UgAAABWrOqB2eHlyP1hamrfYDlyu3IkAABrU7n/O1eOnN43rpYj475z3IdWjgQAAKBtaZ+w/M1api7lSAAAAFas6oHZ2YO1z88evJ05gDtbjoxnvinLkbt2z5cj/2vz0+EXv3x87jcrAACsBeX+b9wXjvvEZTky7iuX5ci4Dz1Qjiz2tZUjAQAAaFLaJyx/s5apSzkSAACAFat6YLZajtwfD+JOp7ykdrUc+cwzO5UjAQBYs8r932o5Mu4jp+XIuC898z8cFQVJ5UgAAACalvYJy9+sZepSjgQAAGDFqh6YVY4EAICllfu/ypEAAABMWtonLH+zlqlLORIAAIAVq3pgVjkSAACWVu7/KkcCAAAwaWmfsPzNWqYu5UgAAABWrOqB2aXKkXv27lWOBABgzSv3f3PlyLjPrBwJAABAV9I+YfmbtUxdypEAAACsWNUDs2k5cv/+/UPLkb/etk05EgCANanc/y3LkXHfeFg5Mu5TK0cCAADQlrRPWP5mLVOXciQAAAArVvXA7KLlyH3KkQAAEJX7v0PLkdP7zsqRAAAAdCHtE5a/WcvUpRwJAADAilU9MDtuOfKp/9qiHAmr1I033xGOedXp4eWveXP4zm13FbcCAFG5/xv3heM+sXIkAAAAk5L2CcvfrGXqUo4EAABgxaoemFWOBEovOubV4aBDjprJC3/vFcWtAEBU7v8qRwIAADBpaZ+w/M1api7lSAAAAFas6oHZtVCO3Lxla3jbH/95OOyok+aKX13lkBefEP7gTX8U/uW7PyiWpj+sl9WnPPNjur6PP+WMcNOtdxZTDZfOt5T4mPGx0/niMtx8+4Ziqn6wvedZL6vPsM+BrmJ7Xzw+Hwez0j4Hyv1f5UgAAAAmLe0Tlr9Zy9SlHAkAAMCKVT0wu9rLkfGA/xHHnJI9IN917vze3cVSTZ71sjpVz/yYJl4qeynpPEvJFSPLHPny1xZTTZ7tPc96WZ0W+xzoOrb3fHw+5rMSPgfK/V/lSAAAACYt7ROWv1nL1KUcCQAAwIpVPTC72suRf/qBv8oegJ9E4pmR+sJ6WZ1y67fM75/aQjny1W9aME81fWF7z7NeVqfc+p1U+vS6nvv+v8wu46TSFz4HxlPu/ypHAgAAMGlpn7D8zVqmLuVIAAAAVqzqgdnVXo7s0xm04uUq+8J6WZ1y6zcmnuFxlMu4pvMtJV5W+6UnnbZgvjJ9YXvPs15Wp9z6nVRs78PTFz4HxlPu/ypHAgAAMGlpn7D8zVqmLuVIAAAAVqzqgdnVXo7MHXyfZPpi0ss16b+/Wo26XmOp8diT37hg+qUS54nzDpNO3xd1l2vS87dl0ss16b+/WjW9Xsd9vHGn78q4yzXu9Etp+vGaMu5yLTX9Uvenxp1+0sr9X+VIAAAAJi3tE5a/WcvUpRwJAADAilU9MKsc2W36YtLLNem/v1qNul6Xuhz2YonzDpNO2xd1l2vS87dl0ss16b+/WjW9Xsd9vHGn78q4yzXu9Etp+vGaMu5yLTX9Uvenxp1+0sr9X+VIAAAAJi3tE5a/WcvUpRwJAADAilU9MKsc2W36YtLLNem/v1qNul6VI8cz6fnbMunlmvTfX62q7+/F3q+jqr5GMUsZd/qujLtc406/lKZfl6ZUn2PMUpaafqn7U+NOP2nl/q9yJAAAAJOW9gnL36xl6lKOBAAAYMWqHphVjuw2fTHp5Zr031+tRl2v8dLYLz3ptAXTLxWX1Z7M/G1ZznL923/87+LfhrvnP+4r/m1xy/n7LK18fy/1fh3VuK/TuNN3ZdzlGnf6pTT9ujRl3Oe51PRL3Z8ad/pJK/d/lSMBAACYtLRPWP5mLVOXciQAAAArVvXA7ForR45r0vO3ZdLLNem/v1rVXa+Tnr8tdZdr0vO3ZZzl2r7jmXDaW98T/u/fPiY88NDPilsXivf9j9962cy0O3ftKm7NG+fv05wbb74jHPOq08PLX/Pm8J3b7ipuHW7c12nc6bsy7nKNO/2467Uvxn2eTZv03x9Xuf+rHAkAAMCkpX3C8jdrmbqUIwEAAFixqgdmlSMXN+n52zLucj3y6GPhC9d8rfiv4T531VfDQ5seKf5ruHH/PqOpu14nPX9b6i7XpOdvyzjL9boz3zU33dEnvj7snv5eSO2Y/p446oTXzU132tveU9yTV05Xhm686JhXz63zF/7eK4pbh6u+RjFLGXf6roy7XONOP+567Yvqc4wZZu/UVPjw3356pig9qo0/fSi89s3vCk9vHb6/OOrf74ty/1c5EgAAgElL+4Tlb9YydSlHAgAAsGJVD8wqRy5u0vO3ZZzlevSxX4UjjjllZrq/+fhni1sX+su/+fuZaQ498sTwH/f9pLg1r/y7ZWhG3fU66fnbUne5Jj1/W9LlyqV07483hv/+wpfM3f6O95xf3DPvze/8s7n747RxnlJ5+2KhG+Ou97an78q4y9X29H0xynLHfcS3vut9M/fHEui/37v4d3x0zfpvzZxpNs5z6hnvnNm/zKn+7Zi+K/d/lSMBAACYtLRPWP5mLVOXciQAAAArVvXArHLk4iY9f1vGWa5PfOaqgWk/cMlHBg7qx3+Pt1WnWfenFxb35lWnjaEZddfrpOdvS93lmvT8bUmXK5eqz37hKwP3fe6qrxT3hPAPV35p4L44bVX1vmGhG+Ou97an78q4y9X29H0xynLHy4Sn013+ySuLewft3rM3vPu9Fy2Y/ubbNxRTDEqn67ty/1c5EgAAgElL+4Tlb9YydSlHAgAAsGJVD8wqRy5u0vO3Zdzl+sDFfzMw/R+f98FwIB7wn0789+p9bzr7T4eeIapUnT6GZtRdr+UZQmOOPfmNxa2jq/7tmL5Il2vS6YvcsqVJxTNGVu+PZ4e859/vW/KsktV5hoVujLve256+K+MuV9vT98Woy33dDbfMnQmyTDwj5ONP/GcxRQgPPvzz8LJX/uHANC/4nZeHf/nuD4opFqpOG9N35f6vciQAAACTlvYJy9+sZepSjgQAAGDFqh6YVY5c3KTnb8u4yxW3lT+/6K8H5okFqLQoddaffGDJYmRUnSeGZtRdr/Hsf//P754Qjn7FG8I3b7yluHV0df9+W9LlmnT6IrdsaVI7d+2a2T7K++Mldv/fl7xq7r/jfXGaVHn/YqEb4673tqfvyrjL1fb0fTHOct//wMPhxS//g4Hp43fGP990e1h/3Y0Dt8ecfNo7BsqTOek8fVfu/ypHAgAAMGlpn7D8zVqmLuVIAAAAVqzqgVnlyMVNev62LGe54rby7vf9xYJ5y7ztj/985kySo0jnpRmTXq+T/vvDpMs16fTFcpfrgYd+tuAMcjHxtnjfqNL5adYVX7w2HP6ykxes56Xyu8efGq7755uLR6n//umL3LKNk1JT67Uv0uVcyrbtO8Lp7zhnwXxp/uKv/25V/s8S5f6vciQAAACTlvYJy9+sZepSjgQAAGDFqh6YVY5c3KTnb8tylytuJ2efc8GC+d957gUjFyOjdH6aMen1Oum/P0y6XJNOX9RZrn/65rcXzB9vG0c6P82Jn9UveNHxC9bxqInlv7K8lbt/nPRFbtnGSdTkeu2LdBlHEfcd//pjn14wb8xSl9FOpfP3Xbn/qxwJAADApKV9wvI3a5m6lCMBAABYsaoHZtdaOXLS6YvlLlfcTs76k/cvmH+cs0ZG6fw0I12vk05fTHq5Jv33h6mzXPEMeOn8X/36Pxf3jiadn+bEz+rDjjppwToeNYe8+ISZx4hy94+Tvsgt2ziJmlyvfZEu46ji5bKPfPlrF8wfn+Mtd3y3mGpp6fx9V+7/KkcCAAAwaWmfsPzNWqYu5UgAAABWrOqBWeXIbtMXy1muuK2867wPLpi3TCxIxu1nFOm8NCNdr5NOX0x6uSb994dZ7nLF74DfOGLh2fP+x2+9LNz74/uLqZaWzk+z1l93Y3jRMa9esJ6XSjy74VVf/nrxKPU/V/oit2zjpNTUeu2LdDlHEc8MGc8Qmc5bjctqK0cCAADQrrRPWP5mLVOXciQAAAArVvXArHJkt+mLcZcrbit/duGlA/O85V3vnUn1tre+632rsgyxUqTrddLpi7rLdePNd4RjXnV6ePlr3hy+c9tdxa2jq/v325IuVy6pqal94fdPffPANNX//p1jXxOe3rrwu6E6/bDQjXHXe9vTd2Xc5Wp7+r4Yd7n/4sN/t2Cea79xQ/j69TeF/3n4cQO3v+K1b505w+RiqtPH9F25/6scCQAAwKSlfcLyN2uZupQjAQAAWLGqB2aVI7tNX4y7XH9+0V8PTP+ms/909qD/dOK/5+5bTHX6GJqRrtdJpy/qLlf1LHEv/L1XFLeOrvq3Y/oiXa5cUv/r0ssH7v/iV74x871QvdTwqWe8c8FnQHWeYaEb4673tqfvyrjL1fb0fTHqcseSYyw7VqeNn43/5/4HiylC2PTIo+Flr/zDgWniGSbjmSaHqU4b03fl/q9yJAAAAJOW9gnL36xl6lKOBAAAYMWqHphda+XIcU16/raMs1wf+4fPD0x71p+8f6D4FP/97e8+f2Cad557QXFvXnXaGJpRd71Oev621F2uSc/flnS5cqm65Y7vDtwXL7Nfuuff7wv/7dCj5+678K8uL+6ZVZ1vWOjGuOu97em7Mu5ytT19X4yy3PH9/YIXDV5K/3Vnvits/fW2Yop5u/fsDe9+318MTBtz8+0biikGpdP1Xbn/qxwJAADApKV9wvI3a5m6lCMBAABYsaoHZpUjFzfp+dsyznI9+PDP50oRb/vjPw8HpreTVNxu4n1xmv///3tM2PD9fyvuyav+7RiaUXe9Tnr+ttRdrknP35Z0uXIpxbPG/ebv/v7c7S896bSZ74eqtEj9tW/dVNwz3t+iXeOu97an78q4y9X29H0xynLHS+X/9ktPnpsmXlo7ty9Qdc36b4X/+7ePmZk+dzbZUvmYZfqu3P9VjgQAAGDS0j5h+Zu1TF3Kkf9fe3f/I8eZ4If9/wkCx8kPtnN5MZB7MQ53wN3ZMeIAFzs/KAmUmBAiAgIBgVnSWK2iSCtF2sUIC8pLRScdI4FHZxdH+7iWqTMJybyjqaNF6ETtUqslKVKkSIkvkobSaLlP+umuqq5+prq7ep7u6nn5fIAvJPb0dNd019Q89dS3qwAAANiy6gdmlSMnW/b3L8qsy/XmqX/fPxPUpDJE/Nr/untveP3P3yxuGW/W56ed3Nd12d+/KLnLtezvX5RZluuf/V/PVff7j/7Wb4affdA8R/mH//P/Xt0vXmp7kvJ+ZejG3/71369e89/4vT8sbh2v/h7FTDPr/bsy63LNev9ZX9fNov4zxozz9n94t3+J7D/9s39T3DLdu+/9NPzef/8/9cuV47R9/s2iHP8qRwIAALBsaZ+w3Gctk0s5EgAAgC2rfmBWOXKyZX//oix7uZb9/NtV7uu67O9flNzlWvb3L8osyxX/Rjzyfzzev9+//Mkbxa3r3bp9J/znv/n3+2eW/MWlj4pbm83y/MzPygt/FP7Gr/12+Lu/84/Cv/jTY8Wt4836Ps16/67Mulyz3n/W13WzmOXnvNMbC87bLM+/GZTjX+VIAAAAli3tE5b7rGVyKUcCAACwZdUPzCpHTrbs71+UZS/Xsp9/u8p9XZf9/YvSdrkO/D//b/hb/83w0rFt82u/9Q/CkR//WfEo66X33yw2slynTv9V8X/jvXv+Z+Hu518U/xpvI8/PdLG8Gs9cGDOpyNrWrO/TrPfvyqzLNev9p5n3+zIvs/6c0+4/7eupWe+/bOX4VzkSAACAZUv7hOU+a5lcypEAAABsWfUDs8qRky37+xdl2cu17OffrnJf12V//6K0Wa64DfyP/85vrbtv28RS5biyS3rfzWLZy7Xs59+ufusP/nH1msb/z1V/j2KmmfX+XZl1uWa9/zTzfl/mpf4zxkwz7f7Tvp6a9f7LVo5/lSMBAABYtrRPWO6zlsmlHAkAAMCWVT8wqxw52bK/f1GWvVzLfv7tKvd1Xfb3L0qb5YrbwP/sv/7ddfdtm//kv/jt/mM0Se+7WSx7uZb9/NvVvF/XWR9v1vt3ZdblmvX+08z78eZl1uWadv9pX0/Nev9lK8e/ypEAAAAsW9onLPdZy+RSjgQAAGDLqh+YVY6cbNnfvyjLXq5lP/92lfu6Lvv7F6Xtcr165E/D3/n1P1h3/2mJZ4188ZXDxaOsl95/s1j2ci37+bereb+usz7erPfvyqzLNev9p5n3483LrMs17f7Tvp6a9f7LVo5/lSMBAABYtrRPWO6zlsmlHAkAAMCWVT8wu93LkTlngpt34rJsFl6X7cn72qxp+WJ+4/f+MPzLn7xR3Gu89PumiY8ZHzv9vjKbhfVle2p6fZeVzfS+bqb1PWazsB2YTTn+VY4EAABg2dI+YbnPWiaXciQAAABbVv3A7HYvR/7Df/K/NR6AX0bismwWXpftyfvarGn5yvzWH/zj4l7jpd8zTXzM9Hvq2SysL9tT0+u7rGym93Uzre8xm4XtwGzK8a9yJAAAAMuW9gnLfdYyuZQjAQAA2LLqB2a3ezny3/zbNxsPwC8jf37yVLFUy+d12Z68r83+3t//J43LGBO/Nk36PdNMer7/8u/9w+Jey2d92Z6mlXO7zGZ6X4+feKtxGZcR24HmbIXtQDn+VY4EAABg2dI+YbnPWiaXciQAAABbVv3A7HYvR0bxwP8/+B8eDH/j13678WD8IvOf/le/0z8T0hsn/12xNJuH12V78r6uFy9z/Zu/v/4y17/93/6P4c9e/7fFvcZLv2+acc8XC1H/6l//eXGvzcH6sv2MW/+6Svm+xjLiZvOv3zi5tPW9jO3AaLbadqAc/ypHAgAAsGxpn7DcZy2TSzkSAACALat+YHYnlCMBcvztX//9qsjzG7/3h8WtAOw05fhXORIAAIBlS/uE5T5rmVzKkQAAAGxZ9QOzypEAk6288Ef9M6r93d/5R+Ff/Omx4lYAdppy/KscCQAAwLKlfcJyn7VMLuVIAAAAtqz6gVnlSAAAmK4c/ypHAgAAsGxpn7DcZy2TSzkSAACALat+YFY5EgAApivHv8qRAAAALFvaJyz3WcvkUo4EAABgy6ofmFWOBACA6crxr3IkAAAAy5b2Cct91jK5lCMBAADYsuoHZpUjAQBgunL8qxwJAADAsqV9wnKftUwu5UgAAAC2rPqBWeVIAACYrhz/KkcCAACwbGmfsNxnLZNLORIAAIAtq35gVjkSAACmK8e/ypEAAAAsW9onLPdZy+RSjgQAAGDLqh+YVY4EAIDpyvGvciQAAADLlvYJy33WMrmUIwEAANiy6gdmlSMBAGC6cvyrHAkAAMCypX3Ccp+1TC7lSAAAALas+oFZ5UgAAJiuHP8qRwIAALBsaZ+w3Gctk0s5EgAAgC2rfmBWORIAAKYrx7/KkQAAACxb2ics91nL5FKOBAAAYMuqH5hVjgQAgOnK8a9yJAAAAMuW9gnLfdYyuZQjAQAA2LLqB2aVIwEAYLpy/KscCQAAwLKlfcJyn7VMLuVIAAAAtqz6gdlZy5HXP7mpHAkAwI5Tjn/jWDiOiZUjAQAAWJa0T1jus5bJpRwJAADAllU/MDuxHPmVciQAAETl+HdsObI3dlaOBAAAoAtpn7DcZy2TSzkSAACALat+YDYtR/6yl3HlyFu3bytHAgCwI5Xj37IcGcfG48qRcUytHAkAAMCipH3Ccp+1TC7lSAAAALas+oHZaeXIe199pRwJAMCOV45/m8qRccysHAkAAEBX0j5huc9aJpdyJAAAAFtW/cDsrOXIa5/cCL+4+FH49NNP57KDDQAAW0Ec+8YxcBwLxzGxciQAAADLkvYJ613DeRy7UY4EAABgy6ofmG1Tjvxy9V7/wO/tO3fC9Rs3w8VLH4WbN2/291nj9wMAwHYWx7xx7BvHwHEsHMfEcWwcx8hxrKwcCQAAQJfSPmG9axiTSzkSAACALat+YLZejuwnHsj95pt15cgvvviyfwD4k5ufhouXr4Tr1z/p77PGg78AALCdxTFvHPvGMXAcC8cxcRwbxzFyWo6MY+k4pi7H18qRAAAAzFvaJ6x3DWNyKUcCAACwZdUPzA7KkbEUOVqOXFv7pipHrt4rypF374YbNz8LH139OFy5eq2/z/rll18WjwoAANtTHPPGsW8cA8excBwTx7FxHCPHsXJZjoxj6JFyZG+MXY6362NwAAAAyJH2Cetdw5hcypEAAABsWfUDs+PLkYNLa4+UI2/fDZ9+dit8fG1wxpxyvzV+PwAAbEdxrFuOe+MYOI6F45g4jo3r5cjyktrKkQAAACxa2ics91vL5FKOBAAAYMuqH5gtD9a2KUfevft5+OzW7XD9xs3iwPD1/n6rs0cCALBdlWeNjGPfOAaOY+E4Jo5jY+VIAAAAliHtE9a7hjG5lCMBAADYsuoHZqeVI7/6+uv+Ad8vV++Fzz//Ity6c6d/GcF4ScF4cPjTTz/t77t+9dVXxaMDAMD2EMe4cawbx7xx7BvHwHEsHMfEcWwcx8hxrBzHzMqRAAAAdCXtE9a7hjG5lCMBAADYsuoHZmMGB2x/1aoceefu4NLa1z65ES5f+Thc/mh4eW0FSQAAtouyGBkTx7xx7BvHwHEsHMfEbcqRcYydFiNjAAAAIEfaJyz3X8vkUo4EAABgy0oPztbLkd+k5civvu5fJjAe+P3yy9Vw9/PPw63bd8ONm5+GKx9fCx9evBwuf3S12oeNlx2MjwcAAFtRHMuWl9KOiWPdOOaNY984Bo5j4TgmjmPjOEaOY+U4Zq6XI+OYWjkSAACARUn7hOU+bJlcypEAAABsWenB2bQcOTx75DdVObJ/9sgvV4uzR34ePr11O1z/5Ga4+vH1/sHii5cuV5fYjokHlOPBYUVJAAA2uzhmjWPXeimyfynt3hg3jnXjmDeOfeMYOI6F+2eN7I2N4xi5LEfGsXN51kjlSAAAABYp7ROW+7JlcilHAgAAsKXVD84OypHxktq99P87/tLaX3zxZXH2yDvh5me3wic3Pg0fXf04/OLSR+GDDy+GK73/T/drRURERES2UuKYNo5t4xg3jnXjmDeOfeMYOI6F45h42iW149i6HGfXx94AAACQK+0Tpvu1uZQjAQAA2NLqB2inliOTS2uXZ4/87Nbt/kHi65/cCFevXQ8X+wXJS+GDX1wMFy9/FD7++Fq4efPmyBklRUREREQ2U+JYNY5Z49g1jmHjWDaOaePYNo5x41g3jnnj2Ld+1shxl9RWjgQAAGDR0j5huq+bSzkSAACALa1+gDZmcOB2+qW1V4uzR37+xRfh9p27/bPn3Lj5Wfjkxs3w8bVP+mfWuXjpSv+g8s9+/ovw0ws/D+//9INw/qcXwnvv/yz89fmfhr9+f5B3z78vIiIiItJZynFoHJPGsWkco8axahyzxrFr/0M+vbFsHNPGsW0c48axbhzzxrFvHAPHsXAcE7ukNgAAAMuS9gnTvmEu5UgAAAC2tPQgbb0c2Xj2yNqltcuzR97tJR4kjmfR+fSzW+HGp5+Fa9c/CR9fux4+unItXLpyNfzi8kfh5xcvhV9cvBw+/MUgP//wUpUPfn5xmA9FREREROaY2lizPgYtx6VxjNofq/bGrHHsGsewcSwbx7RxbBvHuHGsG8e8cexbP2vkxEtqF2Nr5UgAAAAWIe0Tpn3DXMqRAAAAbGnpQdpBOXJw+b/GcmTt7JHxYHB59sh6QbJ/me1PPwvXP7kZrn1yo3+2nY+vfxKufHxtmKsf9/PRlfW5/NFVEREREZG5pWnMWY5H62PUOGaNY9c4ho1j2TimLce3VTGyOGtkWYzcyCW1YwAAACBX2idM+4a5lCMBAADY8tIDtYMDuE2X1h6ePTIeBC7PHlkWJO/c/bx/0DhebjAeQI5n2IkHlG/c/DRc/+RGuHZ9kP5B516uXrs+zMfXREREREQWn9oYtByXluPUOGaNY9c4hi3PFlleSjuOdatiZHHWyH4xsuGskS6pDQAAQBfSPmHaN8ylHAkAAMCWlx6srcqRLc8eOakgWZYk+5fbvvlp+OTGzV5iWfLmIL1/xzPzjEt5wFpEREREZJY0jS3LxDFoOR6NY9M4Ro1j1XLcWo5jJxUj2501UjkSAACAxUn7hGnfMJdyJAAAAFteerA2ZurZIycUJOPlBuslyfqZJGPimXjKM0oOE//9WXFwWkRERERkvinHm/UxaDkurZciy/FrWYocuZR2i2LktLNGxgAAAMA8pH3CtG+YSzkSAACAbSE9YDvu7JEbKUjWzyRZ/rdelixTHpwWEREREVlE0vFnOS6tj1XL8eusxciyHOmskQAAAHQl7ROmfcNcypEAAABsC+lB20E5cnj2yHpBMh4AnlqQLA4kN5Uky5QHoMv/FxERERFZdJrGojFNpcg4pp1WjCzLkVUxshhDl+PpdJwNAAAA85L2CdO+YS7lSAAAALaF9KBtTHlAtzx7ZHp57bEFycaS5OAgczzYXC9LpoVJEREREZFFpz4WLcencawax6xNpcg2xcjyctqDs0Y2FyNjAAAAYF7SPmHaN8ylHAkAAMC20XTwdnBgd3h57WkFyXpJcrVWkuwXJeOB5lpRskx5QHqW1A9oi4iIiMjOTdNYcVrqY9GqENlLOW6NY9j+WLZWimxfjGy+nHYMAAAAzFPaJ0z7hrmUIwEAANhWmg7iti1I9kuSX68vSfYTz7pTK0r2y5KfDw5CN2VQoBQRERERyUvTWLOf3li0PjYtx6vl+HWkFNkb45bjXcVIAAAANou0T5j2DXMpRwIAALDtpAdyB+XI8QXJsiRZFSS/+npdSXKkKFkrS9ZTPzgtIiIiIjLvNI1B62PUctxaL0WWZ4ssi5Hl+HdcMbKpHAkAAACLkPYJ075hLuVIAAAAtp30YG5M24LkupLkmKJkPfUD0iIiIiIii07TmDQtRKalyI0WI2MAAABgEdI+Ydo3zKUcCQAAwLbUdFC3qSA5OCDcXJJcW/umsShZL0uOS9MBaxERERGRWdM01qynHJ+uL0QOx7X1UmQ/1ThYMRIAAIDlSfuEad8wl3IkAAAA21bTwd1xBcnyLJL1kuRoUXJ4Rsl6qtJkU8oD1SIiIiIiG0nTGLNI09i0Pnatj2mrcW78bzH+VYwEAABg2dI+Ydo3zKUcCQAAwLbWdJA3pk1JclJRcph4+/AMkyIiIiIii0w5/mwam9bHriNj2vjfYrzbphQZAwAAAIuW9gnTvmEu5UgAAAC2vaaDvTH1gmRakpxWlGxK0wFqEREREZF5pWkMWs/I2DX+tza2HZYiFSMBAADYHNI+Ydo3zKUcCQAAwI7QdNA3ZliQHF+SjIkHl9OyZFOaDlKLiIiIiOSmaexZTzVeTcaxTaXImKaxcQwAAAB0Je0Tpn3DXMqRAAAA7BhNB3/rqR8sHilKNpQl05QHo0VEREREFpmmsehIivHrLIXIMgAAANCltE+Y9g1zKUcCAACw4zQdCK6nfgB5mPLgcvvCpIiIiIjIQrOuCNk8lm0a89YDAAAAy5D2CdO+YS7lSAAAAHakpoPCTWk6uDxM/SC0iIiIiEjXaRqjDtI0tm0KAAAALEvaJ0z7hrmUIwEAANixmg4Ot0nTwWcRERERkWWlaczaJgAAALBMaZ8w7RvmUo4EAACAnqaDxSIiIiIi2y0AAACwWaR9wrRvmEs5EgAAABJNB5FFRERERLZqAAAAYDNK+4Rp3zCXciQAAABM0HRwWURERERkswcAAAA2u7RPmPYNcylHAgAAAAAAAAAAAJ1K+4Rp3zCXciQAAAAAAAAAAADQqbRPmPYNcylHAgAAAAAAAAAAAJ1K+4Rp3zCXciQAAAAAAAAAAADQqbRPmPYNcylHAgAAAAAAAAAAAJ1K+4Rp3zCXciQAAAAAAAAAAADQqbRPmPYNcylHAgAAAAAAAAAAAJ1K+4Rp3zCXciQAAAAAAAAAAADQqbRPmPYNcylHAgAAAAAAAAAAAJ1K+4Rp3zCXciQAAAAAAAAAAADQqbRPmPYNcylHAgAAAAAAAAAAAJ1K+4Rp3zCXciQAAAAAAAAAAADQqbRPmPYNcylHAgAAAAAAAAAAAJ1K+4Rp3zCXciQAAAAAAAAAAADQqbRPmPYNcylHAgAAAAAAAAAAAJ1K+4Rp3zCXciQAAAAAAAAAAADQqbRPmPYNcylHAgAAAAAAAAAAAJ1K+4Rp3zCXciQAAAAAAAAAAADQqbRPmPYNcylHAgAAAAAAAAAAAJ1K+4Rp3zCXciQAAAAAAAAAAADQqbRPmPYNcylHAgAAAAAAAAAAAJ1K+4Rp3zCXciQAAAAAAAAAAADQqbRPmPYNcylHAgAAAAAAAAAAAJ1K+4Rp3zCXciQAAAAAAAAAAADQqbRPmPYNcylHAgAAAAAAAAAAAJ1K+4Rp3zCXciQAAAAAAAAAAADQqbRPmPYNcylHAgAAAAAAAAAAAJ1K+4Rp3zCXciQAAAAAAAAAAADQqbRPmPYNcylHAgAAAAAAAAAAAJ1K+4Rp3zCXciQAAAAAAAAAAADQqbRPmPYNcylHAgAAAAAAAAAAAJ1K+4Rp3zCXciQAAAAAAAAAAADQqbRPmPYNcylHAgAAAAAAAAAAAJ1K+4Rp3zCXciQAAAAAAAAAAADQqbRPmPYNcylHAgAAAAAAAAAAAJ1K+4Rp3zCXciQAAAAAAAAAAADQqbRPmPYNcylHAgAAAAAAAAAAAJ1K+4Rp3zCXciQAAAAAAAAAAADQqbRPmPYNcylHAgAAAAAAAAAAAJ1K+4Rp3zCXciQAAAAAAAAAAADQqbRPmPYNcylHAgAAAAAAAAAAAJ1K+4Rp3zCXciQAAAAAAAAAAADQqbRPmPYNcylHAgAAAAAAAAAAAJ1K+4Rp3zCXciQAAAAAAAAAAADQqbRPmPYNcylHAgAAAAAAAAAAAJ1K+4Rp3zCXciQAAAAAAAAAAADQqbRPmPYNcylHAgAAAAAAAAAAAJ1K+4Rp3zCXciQAAAAAAAAAAADQqbRPmPYNcylHAgAAAAAAAAAAAJ1K+4Rp3zCXciQAAAAAAAAAAADQqbRPmPYNcylHAgAAAAAAAAAAAJ1K+4Rp3zCXciQAAAAAAAAAAADQqbRPmPYNcylHAgAAAAAAAAAAAJ1K+4Rp3zCXciQAAAAAAAAAAADQqbRPmPYNcylHAgAAAAAAAAAAAJ1K+4Rp3zCXciQAAAAAAAAAAADQqbRPmPYNcylHAgAAAAAAAAAAAJ1K+4Rp3zCXciQAAAAAAAAAAADQqbRPmPYNcylHAgAAAAAAAAAAAJ1K+4Rp3zCXciQAAAAAAAAAAADQqbRPmPYNcylHAgAAAAAAAAAAAJ1K+4Rp3zCXciQAAAAAAAAAAADQqbRPmPYNcylHAgAAAAAAAAAAAJ1K+4Rp3zCXciQAAAAAAAAAAADQqbRPmPYNcylHAgAAAAAAAAAAAJ1K+4Rp3zCXciQAAAAAAAAAAADQqbRPmPYNcylHAgAAAAAAAAAAAJ1K+4Rp3zCXciQAAAAAAAAAAADQqbRPmPYNcylHAgAAAAAAAAAAAJ1K+4Rp3zCXciQAAAAAAAAAAADQqbRPmPYNcylHAgAAAAAAAAAAAJ1K+4Rp3zCXciQAAAAAAAAAAADQqbRPmPYNcylHAgAAAAAAAAAAAJ1K+4Rp3zCXciQAAAAAAAAAAADQqbRPmPYNcylHAgAAAAAAAAAAAJ1K+4Rp3zCXciQAAAAAAAAAAADQqbRPmPYNcylHAgAAAAAAAAAAAJ1K+4Rp3zCXciQAAAAAAAAAAADQqbRPmPYNcylHAgAAAAAAAAAAAJ1K+4Rp3zCXciQAAAAAAAAAAADQqbRPmPYNcylHAgAAAAAAAAAAAJ1K+4Rp3zCXciQAAAAAAAAAAADQqbRPmPYNcylHAgAAAAAAAAAAAJ1K+4Rp3zCXciQAAAAAAAAAAADQqbRPmPYNcylHAgAAAAAAAAAAAJ1K+4Rp3zCXciQAAAAAAAAAAADQqbRPmPYNcylHAgAAAAAAAAAAAJ1K+4Rp3zCXciQAAAAAAAAAAADQqbRPmPYNcylHAgAAAAAAAAAAAJ1K+4Rp3zCXciQAAAAAAAAAAADQqbRPmPYNcylHAgAAAAAAAAAAAJ1K+4Rp3zCXciQAAAAAAAAAAADQqbRPmPYNcylHAgAAAAAAAAAAAJ1K+4Rp3zCXciQAAAAAAAAAAADQqbRPmPYNcylHAgAAAAAAAAAAAJ1K+4Rp3zCXciQAAAAAAAAAAADQqbRPmPYNcylHAgAAAAAAAAAAAJ1K+4Rp3zCXciQAAAAAAAAAAADQqbRPmPYNcylHAgAAAAAAAAAAAJ1K+4Rp3zCXciQAAAAAAAAAAADQqbRPmPYNcylHAgAAAAAAAAAAAJ1K+4Rp3zCXciQAAAAAAAAAAADQqbRPmPYNcylHAgAAAAAAAAAAAJ1K+4Rp3zCXciQAAAAAAAAAAADQqbRPmPYNcylHAgAAAAAAAAAAAJ1K+4Rp3zCXciQAAAAAAAAAAADQqbRPmPYNcylHAgAAAAAAAAAAAJ1K+4Rp3zCXciQAAAAAAAAAAADQqbRPmPYNcylHAgAAAAAAAAAAAJ1K+4Rp3zCXciQAAAAAAAAAAADQqbRPmPYNcylHAgAAAAAAAAAAAJ1K+4Rp3zCXciQAAAAAAAAAAADQqbRPmPYNcylHAgAAAAAAAAAAAJ1K+4Rp3zCXciQAAAAAAAAAAADQqbRPmPYNcylHAgAAAAAAAAAAAJ1K+4Rp3zCXciQAAAAAAAAAAADQqbRPmPYNcylHAgAAAAAAAAAAAJ1K+4Rp3zCXciQAAAAAAAAAAADQqbRPmPYNcylHAgAAAAAAAAAAAJ1K+4Rp3zCXciQAAAAAAAAAAADQqbRPmPYNcylHAgAAAAAAAAAAAJ1K+4Rp3zCXciQAAAAAAAAAAADQqbRPmPYNcylHAgAAAAAAAAAAAJ1K+4Rp3zCXciQAAAAAAAAAAADQqbRPmPYNcylHAgAAAAAAAAAAAJ1K+4Rp3zCXciQAAAAAAAAAAADQqbRPmPYNcylHAgAAAAAAAAAAAJ1K+4Rp3zCXciQAAAAAAAAAAADQqbRPmPYNcylHAgAAAAAAAAAAAJ1K+4Rp3zCXciQAAAAAAAAAAADQqbRPmPYNcylHAgAAAAAAAAAAAJ1K+4Rp3zCXciQAAAAAAAAAAADQqbRPmPYNcylHAgAAAAAAAAAAAJ1K+4Rp3zCXciQAAAAAAAAAAADQqbRPmPYNcylHAgAAAAAAAAAAAJ1K+4Rp3zCXciQAAAAAAAAAAADQqbRPmPYNcylHAgAAAAAAAAAAAJ1K+4Rp3zCXciQAAAAAAAAAAADQqbRPmPYNcylHAgAAAAAAAAAAAJ1K+4Rp3zCXciQAAAAAAAAAAADQqbRPmPYNcylHAgAAAAAAAAAAAJ1K+4Rp3zCXciQAAAAAAAAAAADQqbRPmPYNcylHAgAAAAAAAAAAAJ1K+4Rp3zCXciQAAAAAAAAAAADQqbRPmPYNcylHAgAAAAAAAAAAAJ1K+4Rp3zCXciQAAAAAAAAAAADQqbRPmPYNcylHAgAAAAAAAAAAAJ1K+4Rp3zCXciQAAAAAAAAAAADQqbRPmPYNcylHAgAAAAAAAAAAAJ1K+4Rp3zCXciQAAAAAAAAAAADQqbRPmPYNcylHAgAAAAAAAAAAAJ1K+4Rp3zCXciQAAAAAAAAAAADQqbRPmPYNcylHAgAAAAAAAAAAAJ1K+4Rp3zCXciQAAAAAAAAAAADQqbRPmPYNcylHAgAAAAAAAAAAAJ1K+4Rp3zCXciQAAAAAAAAAAADQqbRPmPYNcylHAgAAAAAAAAAAAJ1K+4Rp3zCXciQAAAAAAAAAAADQqbRPmPYNcylHAgAAAAAAAAAAAJ1K+4Rp3zCXciQAAAAAAAAAAADQqbRPmPYNcylHAgAAAAAAAAAAAJ1K+4Rp3zCXciQAAAAAAAAAAADQqbRPmPYNcylHAgAAAAAAAAAAAJ1K+4Rp3zCXciQAAAAAAAAAAADQqbRPmPYNcylHAgAAAAAAAAAAAJ1K+4Rp3zCXciQAAAAAAAAAAADQqbRPmPYNcylHAgAAAAAAAAAAAJ1K+4Rp3zCXciQAAAAAAAAAAADQqbRPmPYNcylHAgAAAAAAAAAAAJ1K+4Rp3zCXciQAAAAAAAAAAADQqbRPmPYNcylHAgAAAAAAAAAAAJ1K+4Rp3zCXciQAAAAAAAAAAADQqbRPmPYNcylHAgAAAAAAAAAAAJ1K+4Rp3zCXciQAAAAAAAAAAADQqbRPmPYNcylHAgAAAAAAAAAAAJ1K+4Rp3zCXciQAAAAAAAAAAADQqbRPmPYNcylHAgAAAAAAAAAAAJ1K+4Rp3zCXciQAAAAAAAAAAADQqbRPmPYNcylHAgAAAAAAAAAAAJ1K+4Rp3zCXciQAAAAAAAAAAADQqbRPmPYNcylHAgAAAAAAAAAAAJ1K+4Rp3zCXciQAAAAAAAAAAADQqbRPmPYNcylHAgAAAAAAAAAAAJ1K+4Rp3zCXciQAAAAAAAAAAADQqbRPmPYNcylHAgAAAAAAAAAAAJ1K+4Rp3zCXciQAAAAAAAAAAADQqbRPmPYNcylHAgAAAAAAAAAAAJ1K+4Rp3zCXciQAAAAAAAAAAADQqbRPmPYNcylHAgAAAAAAAAAAAJ1K+4Rp3zCXciQAAAAAAAAAAADQqbRPmPYNcylHAgAAAAAAAAAAAJ1K+4Rp3zCXciQAAAAAAAAAAADQqbRPmPYNcylHAgAAAAAAAAAAAJ1K+4Rp3zCXciQAAAAAAAAAAADQqbRPmPYNcylHAgAAAAAAAAAAAJ1K+4Rp3zCXciQAAAAAAAAAAADQqbRPmPYNcylHAgAAAAAAAAAAAJ1K+4Rp3zCXciQAAAAAAAAAAADQqbRPmPYNcylHAgAAAAAAAAAAAJ1K+4Rp3zCXciQAAAAAAAAAAADQqbRPmPYNcylHAgAAAAAAAAAAAJ1K+4Rp3zCXciQAAAAAAAAAAADQqbRPmPYNcylHAgAAAAAAAAAAAJ1K+4Rp3zCXciQAAAAAAAAAAADQqbRPmPYNcylHAgAAAAAAAAAAAJ1K+4Rp3zCXciQAAAAAAAAAAADQqbRPmPYNcylHAgAAAAAAAAAAAJ1K+4Rp3zCXciQAAAAAAAAAAADQqbRPmPYNcylHAgAAAAAAAAAAAJ1K+4Rp3zCXciQAAAAAAAAAAADQqbRPmPYNcylHAgAAAAAAAAAAAJ1K+4Rp3zCXciQAAAAAAAAAAADQqbRPmPYNcylHAgAAAAAAAAAAAJ1K+4Rp3zCXciQAAAAAAAAAAADQqbRPmPYNcylHAgAAAAAAAAAAAJ1K+4Rp3zCXciQAAAAAAAAAAADQqbRPmPYNcylHAgAAAAAAAAAAAJ1K+4Rp3zCXciQAAAAAAAAAAADQqbRPmPYNcylHAgAAAAAAAAAAAJ1K+4Rp3zCXciQAAAAAAAAAAADQqbRPmPYNcylHAgAAAAAAAAAAAJ1K+4Rp3zCXciQAAAAAAAAAAADQqbRPmPYNcylHAgAAAAAAAAAAAJ1K+4Rp3zCXciQAAAAAAAAAAADQqbRPmPYNcylHAgAAAAAAAAAAAJ1K+4Rp3zCXciQAAAAAAAAAAADQqbRPmPYNcylHAgAAAAAAAAAAAJ1K+4Rp3zCXciQAAAAAAAAAAADQqbRPmPYNc3Vajvyb/3T0h/lq7VfFPQEAAAAAAAAAAICdIHYH613C2C1M+4a5Oi1H/u6+j0Z+oOP/4cvingAAAAAAAAAAAMBOELuD9S5h7BamfcNcnZYj/9kf3xz5gf67//Oqs0cCAAAAAAAAAADADhE7g7E7WO8Sxm5h2jfM1Wk58uzPvxr5gWLiDxlboEqSAAAAAAAAAAAAsD3FjmDsCqbFyJjYLUz7hrk6LUdG6dkjRURERERERERERERERERERERERGRnJnYKo6a+YY7Oy5HR//L9a40/pIiIiIiIiIiIiIiIiIiIiIiIiIjsjMQuYWlc33CjllKOjJxBUkRERERERERERERERERERERERGRnpjxjZGlS33AjllaOjOJ1wuMP+Lv7Pgp/8582vwAiIiIiIiIiIiIiIiIiIiIiIiIisrUTO4KxKxg7g7E7mJrWN5xVp+XIy5cvi4iIiIiIiIiIiIiIiIiIiIiIiIiMJO0b5lKOFBEREREREREREREREREREREREZGlJu0b5lrqZbUBAAAAAAAAAAAA5t03VI4EAAAAAAAAAAAAlmrefUPlSAAAAAAAAAAAAGCp5t03VI4EAAAAAAAAAAAAlmrefUPlSAAAAAAAAAAAAGCp5t03VI4EAAAAAAAAAAAAlmrefUPlSAAAAAAAAAAAAGCp5t03VI4EAAAAAAAAAAAAlmrefUPlSAAAAAAAAAAAAGCp5t03VI4EAAAAAAAAAAAAlmrefUPlSAAAAAAAAAAAAGCp5t03VI4EAAAAAAAAAAAAlmrefUPlSAAAAAAAAAAAAGCp5t03VI4EAAAAAAAAAAAAlmrefUPlSAAAAAAAAAAAAGCp5t03VI5c53w4sGtPeKCXA+eKm2Z17lD/+x944kS4Udy0fXwWjj0xeH32v77J39MbJ8L+/nv5XDi2/d6Ibemdlwbr1gMvnS9uAQAAALJU8yOHwjvFTdve2mfhzKsrYdfDxTzDwz8K7xVf2gxuvP7cYLk6nzsczutteN4TAACAnjn0SmDERtepLdThgZbm3TdUjlxHOXIy5UgWRzkSAABgZ6lKYk155LGw9/uHw7F3Pwtrxf25Eo7sL16f/cfCpeLWiTZrOfKLK+HknxwIe/fsLd7zvWHXdw/lv9+r58OBR4vXqMrm+tmVIwEAgE1nUfto29b2KEdWx+cb8uCeJ8LjLxwLJy/fK+7NYm2/cuTM/Y9t3PGZ9Lv2wMP7mudAq9djttTXg4nPW8tm247Nu2+oHLmOcuRkypEsjnIkAADAzjKxHFnLg8+cCFcdjQnh4rGwp3pd9oVX3i9un2QzliOvnQiPl2d1bMjuQ+fDanHXWV04/Njgcfb/KLzzRXHjJqMcCQAAbCoL3EfbvrZ/ObKe3YfOhdX7xTexIMqRO7YcWcvu50+Hq+XvmnLk3PqGW7QceTdcOnksrHx3X3hl7m/Qzi5Hrl07F44dOhD2fm/csitHLtzX18OZ1w+Hp759YGss9xyXVzkSAABgZ2kuia2F1Tt3w42L58KRHxRFt152HTy34w/GvPfqvv5r8ezzBwevyasXiq9MMKUcefviW+HICyu9x+poX7x2ZsfdB0+Hq18Xt9+/Fy68fjDs7i/rnrByZiNnprgYXnmk/P7N26ZVjgQAADaNhe6jbWfbrBxZPz5/fzAvc/X9t8Ir3ynPJLon7P/J9eIOLIZy5I4oRyavxdpqMQf6/HAOdM+PrxRfbTbLvNJW7eDMu2+4RcuRi/xDM4fH3sLlyOm/RMqRC7fVlnuOy6scCQAAsLO0mcy7+pPiPrueCEcuFzfuRPcvFMW/A+HkB8W++EMvhzPlgatxppQju94Xr87s+L3T4XZxW92lHz8x+PqjR0OL6meinNd7Ohy9Vty0CSlHAgAAm8Vi99G2s21cjhxxL5w5OPigZqs5CDIoR+7EcuRQ/XftUHhnwplalSNnpxy5jnLk5GVXjlw45cgtt2EGAABgY1pN5t0/Hw48NNhf3P/GJp+LWKC1t18evFYvnA1r4W44/szgNZl6hsTNVI6s3ssJlwT/+mxY6S9v7z4fFLe1Vs7rbe45FeVIAABgU1j4Ptp2NodeySbQak6gmlfYE158t7iNBdjoOqUcuRW0ei0++FHY1eLnV46cnXLkOnN4bOXIzWGrbji32nLPcXm36oYZAACAjWk3mTeci9h1+GJx206zFk69MHgNyjLk7ZMrg9fumbcaz+5Rqfbb51+OLN+/1nNo5STvIz+acMaRu+Hk9wbLtHfmS3aV83qbe05FORIAANgUFr6Ptp3toHJk7Wd96s27xW3M30bXKeXIraDVa9Hy51eOnN3WKkeWpcNxWffGr4XbF0+H177/dNjdv+zQILv2roQDJy+G1cbTkK7f4Nw+fyIc+O6+8GBx+wOPPB2e+pPT4dIXg6+v06Yc+cXFcPylldpy7Q27vnMgvPb2Z72l7tpwYzkuw43v+g3r6tXBa7yrOIvDAw/vC4+/dCK8c2PaT9L8/jy4p/f6Hmrz/b3nvlw898PD5977/aPhzK3eF5s2HO+XTetpl+JaC2d+OHjMPUcnX89/XqoN2LjUNlbpxm71gxNhZf/ewW1PdjOxPsvyVtY+C++8fig8vrc4HXAv1e9j78tbdcMMAADAxrSbzBvORYweiEnmcHr7nGdefa6an1h3NoP798KFk6P7pP05iD85FyZNQazdOB+OjczhxH3ZOHdxtnGZZ71/K7feCo/Hx6pfwurO6fBU//FXwvE4DzJOYzly+No1p90kdPn+tZ20r97v/tkvx6su23aw3QNPm6NYf3Bgo3NSM65zY6xb74t5wsb5rUlmnl+cUI6s5l2L9eT+3fBenMPZU8w39bLr273HPnVlzJwqAACw1SxmH214nH3sMd/7F8IrxX7MuKshXDg82Hdv/JDk19cHx5y/VetwPLQv7P7uy+HIhH2WdF9s2jH2dfv3/ec4FI5/eK/31SlFtvv3wqVTR8NT36ktY29fb09vGY99MOnV7tas5cgDZ4ubSvfXwtV3Y5/mieE+bS+xA7BytKlT08H6Meu+crI/vHbjXHjlyfLyxofXf9B0g/NLUdY6NVZGh6ecb+pl5e3JC3/paLEd+OG5iduLurmWI1sVB9e/Fuv037/DI7+b8f1bOXoh3O5tO9bN2TTZQN+rzWuxdqa4aozLas+9b7iNy5F3w6kfDCfvYh7cU/vDE//9zFsNK0p9g3MvvHPosbHf/8DDK+HYteLb6qaUI1fPHg67y41QL+nj7v7h2f4vXXeGG4hxGW586xuT6+HqGyvDZX9k33DjGvPQY+HF3mvYaO16OP788LWNeXDPY6Pfv+ux8Oyb4z59ci+8d/jp2n17qT//Q70N4tnjDRvHK+HI/sF9JpYeqwMM00qU81NtwMaltrGqb+wuvdtbn+r3a7EBnIdZlrfv2unw7KP1+/T+QNQm2Hf37n9SORIAAGBHaTWZt9rbnyz2HUcnxetzOJ+FY08W+5TVbcXdoi/OhRf31r7+8L6RSfsHHn05nGoooo3Me/Sya89w4rvpTIyz3r+t6iyRIxPQw7NJTpzj2ETlyHJCds+PJ38Q9fabBwbL0XKOY9ocxciEeNac1Azr3AT19f7qtd77Uzz3gw+PzmX257ea5h57Nja/OJzXW7es9YNBq+drvy+j8zcxDz7TW+5O5y4BAIBFWNQ+WlXwGXdGyurSsb00Hhcev++y+u6Pwt76/lsslyX7LA98+0fhvXhmnkR9X2zaMfarbx4c/frIPMJjveU6Pb7INrJP1UsyBzG2tLUErYpTHx4Ne/rL/kQ4Uu8ifnE+vPLt4c8Vs2tv0ql56OnwyvujnZGFrh8b2Veu7w/HOZSR+YFkLmeD80tR1jo10fD1mL3DUyurTiw9XhwWVqeUKOtmLuYtuhyZ/m72MjJ39+SJcOYnk+cqN9r3mvparF0MrxVdpt1TrpzTaj61MPN7sGC//OUvw5erY3pkNfPuG27jy2oXK/23D4Xj798Na9XKtxZunHq52uis/8UdPvbj3+v9ke9trF98+3rt+3sr+wcnhiWvR3sb7HEbz4YVca32R3bvoXpzfC3cfv9YtaHd/8Zsr9fVcuXv/bLmTE5O/yUabkz29l6f3XGy+PUL4XbtZYxN+hfLP4IPHQgn043//evDyeOHe38Mk9d37c6VcPxgOUkd/wis/8Woft6m5792Lrzynd4AqNogjW4cq5/xW8fCpeK2VOtLU9Ws9t73/nv7aJxELm7ciBYb9eH79HJY6W0g47p0tTxzREtdLm/8I3Og/J359uFw5lr9DYtnIugNBOL7Vb5nm2TDDAAAwGJNn4e4F955qZgjqJ81sW84h7Pyw5d7+7cHw7E4B1R8tfL1+fBifZ+09in5tTsXwpFyjiI9S8TlY8Xk/2Nh5VQyd3HrSjj56vHwXvHvvlnv39rwg57pPNba28UBhQlzHM3lyKGcSdLy/Ws3aT8sc049EFTOrX3neLha3NROuU6MmaPInpNquc5NMZybei7s762bo/M6a+H2udrBvudPr5ub2vj84vgDSMODQSvhqXjJvHT+Jp5ZIc7fFM87baIeAADY7Ba4j1Y/EVHDrsPgTJT7wq5YtmoqyJXfn5w9rTq+3cvuH5wI792p77PEMxgeDY+XZbOG3kTbY+z150nvE+cRjv2gt99YdRHS/ata2ezJY6PLuHavt4zHwpG/nGd3Js/UOYH6fvT+2txD/fj/3vX7xmvXzofXnilKq+kH/xa0fmx4X7naH+6tF733bvfzybpV2uj8Uk/eOjVNZoen9vOfavh96Cuv0Np7P95Lfq8m2VTlyPq6nM7nxO3H24cHczHl+zDnvte412Jt9W5/u/BsWdocU+6umz6fOrSZypH/7vTb4QcH/zis/PM/Cnc/H3ep5oF59w23dTny1Bvnxp4yuVoBDqUrwPCx48b4tQ8bNnrRrd4Gt1ixn3rzbnFjodx4pCvi/dpZC8d8+mL17KENbVSisjAYz8C30a7b9F+i4cYkZuXUmEbv/YvhleIPQ3oq4+qTJRM+/T5y8KP+Rzaqvfax+d6ot2E7Wi1nsnGsTg3c/Me2/jPO0nqPqj9qOSXVWcqRvew62FvPi9tn1dXyXjhcvJcTipjVuh+zCTbMAAAALN7YeYi1e+HGxdODDz/29xX39vbRxxfV4j7p0TFzDNXlv+L8QtO+7+q5cKD/6fd94ZX3i9t6ZplojGa9f2sXi9Jl0yV1vj4XVvpzJKPLPmLTlCMnTFCnqon55mUer1wnmucosuekWq5z09TndcbN41Uf3E0PTmTNLw7fg/HlyF72Hw0XxkyJVa/hrgPh5J3iRgAAYAta5D7a3XAyfuiq9z3ruhTxA4Df6n3tW4fCgf591h+zr84sWL/cd61/MLEPUTs7f3qsv74vNvYYe6vnuRfOHByebW50/6pNl2XzGDsn8PWgyFkVth56euR9anP8f6SMNnJWwkWsHxn7yvX94SeOj+1NbHR+KX+dmiazw9PiMublejLxyiUNqvVr5jTM62SWI1vNCV0rr07by5z7XlNfi4f2hf2vTr80ezTLHGSr92Dec5kN/uLM2fB/P//DKpevfFx8pdm8+4bbuBw52fiVpTbJOeVa+e+9Wmyc6hvdqNx4po9d3r7uTAd1vQ1SucH8oLipteFlwDdakJz+S1TbsK6bIB5VTeKOnL1g+P1TN5xViXH0tag2WlOef/hHLN04Dj+tkRY3+8ozPWygoBpVpyneaOFwpnJkbzCQednvxS9vuU5PK5vW1q108AUAAMC2NNy/nZCHpl/ieOwczv3efcYcFKm7cHgwx1OfJ6jmH751dP1VQxrMev+2yvmnXa82Xmxq/IGMknJkIX9OapZ5w0mG6/1KOD7mclvh0/J9e3q0hJk1vzh8Dda9Z9VrPmX+psVBEwAAYCtY7D5atd+TdimKY/Fx/7u8T/r85X7qSHGu1b7QQNXj+N7omfiH+2ITjrGXl3Se9jzVvna6fzU8Nv7suJLaJtKqOPXw0+G1+qWxW8619JVnHEw+YLec9WPMvnKb/eGM+aX8dWqaWs9iQx2eEC4dLYqfye9MX/XB3AlzGGO0Wr8a0zCv06JHM367NizkTp4Tqp35dc59r4mvxe7nwmvn228vqt+fFqXGVu9Bi8fJcebsuZFi5KnTf1V8Zbx59w23fzny/lpYvXohnHn7rXDk0OGw8t0nwp69xR/Dxjd5+NhTJ/jOFit/eumi8pcieeyqSX5w0kIPf1nXt+TbGH66fexZFSeY/ks0XL5xbejKteNhb3ys+ifcvz4bVvq3jTtrY11tw1U77eyZgy2ff9LGccJpf8v3qbE42VLWWTxbbNSr96m3/M2HRmaz0OVtWg/GqDbMypEAAAA7QrV/25AH9zwdnjr0VvOljPqGczhj51DKsy7uOhTOTCgsVstRnwSuXbniwe/8KJy8OOXyybPev41q8n3f+DNDlnMc4yZnq/32nHLk8LVunXVzS+MmqBuMmVubrlzOhjmKOcxJtVrnWqjWt4mXpBs+V33+M29+cXj7+HLk9Pmb1nNzAADAJrbgfbRyXzS5CsJgf6jYxy332UcKWWW5aLRMV+0LpWW6JlWJ6fDIfnCbY+xXf/J0y+dp3meLqrMqxg97Hj3feOnuzWJScWrX3pWwcrTh0uPVXMv0/cf66/Tiu8VN0aLWj43sK1f7wxOukJAxvzSPdWqy4c+1oQ5PVH1IdH0BsjpTZ1NxcoqZ+x+TuifTeil9Y7Zr988Vr+30OaHqPZxz36vxtfj6ejhzqFg/dj3We9/bFSTHLWOTZXdw0mLkibf+svjKZPPuG27jcuRauHry5bDn4eKNruehfWFX0dZfv7LMsMGpNpLJ5PKYwcGkPyxNmToIGWftQnE63H29PzCzTcNP/yWaYZDUtHGqbmvzh3L4mg2fa/zGZJ1JG8fqU+7JwYXq9twzMt4Nx4vm+f43Ziypttioz7Kxa2eBy1v+PrQoci57wwwAAEC38vZvW8zhVHM3LZMsx+qHx8Lj9bmlR54LB14ff2Bj1vtPs/Z2MQHdMo1zJdV+e0458kJ47VtPhD1Jdhfzaw/uWf+1Pc+/te49LUt10+aUqrNwPjnrelGuEw1zFNlzUtFGD1SMarfeNz9X3vzicF5t3fKPm+dsYP4GAAC2h8XuoxWXR47H46szqN0Nx5/p3VYV4sqiW20/rSyhJftL5X5Iqw9pjdkPbrMvVj7P9BMpTdg/vH83nDpYFCT72Rv2fP/ofD5EOWcb2r8r9x/Tk4g1Grcfupj1o21G1vk2+8MZ80tzWacmyuzw9BWvfe9rj5+szy0Nb596ltAGM69fk7onk75WGfNaVN87oQBbGLedyFrHeia9Fld/UjznQ73la3F2zlnmU2d+D+Zoo8XIaN59w21bjizPhBf/0Ox96UQ49e6VcOPO3bBa/L6OX1lm2OCUG8C09FXePudflnZqZ4788cWZzwI4/ZdoIxvW2gamui2/HHngbHHTOFM2jtWpgesbgfJsC8+8NXPrva46E+MPz4bbEz450KjFRn2WjV0bC13e8vdh4tkQBpa5YQYAAKB7efu3LeZwMiavK2t3w6VTR8NT+/cO7/fQY+HAmTEf2pz1/mOthVMvFN/fNk3zGdV+e/Mkf86+ePn+tZ20Ly8vNe25qk/jH5p1mcp1YtIkunJkvH3d8le/KxMOBhXKZci56goAALB8i95HK7+vKjTeOR2eSp6vvAR2eVbBcn8p7SKU+yFdlSP3/mTaCYWm7x+uXTsfjr30XNhVXGUi5sFnjoULM1/KcXGqfcxZ5gTK/cescuRi1o+2Gfn+NvvDGfNL81ynmmV2eArVB3Trvx/lGSUbrsjaxszr16TuyaSvVca8FrVtwqQzf0bjthNZ61jPxNfi/pVwZP/g67sOnpva82qzLSvN/B7MSU4xMpp333B7liNrlxw6cLb5tKPjV5b2G5wbbxSPkX5CotwwJo9dDS5mntht61648OPBMm3o8sg903+JZtiwvnt48Fj101WXf9B2PR2OXituG2v4XMMzH/Rue3Jw29Q/HtWpjcdsHMsNefXJg7Vw5oeDx95I6710+8zLYXd83N56cXUDfyDabNRn2dhNs/DlLdeDqX9oagd9Ot4wAwAAsBx5+7ct5nA+KC85PXoprY2KBzaOPF+e/eGx2tkNms16/xHVJY1aXAa6/LBn05UwahPATa9BziRp+f61nbSvLsU08QDK3XCyuLrF1KuGrFOuEw1zFNlzUlH7ecNJ2q33zc+VN784/LnWLX/rcuRwbm70kuMAAMBWs/B9tHKfvNj3Kc9AOXIsvtgXGRTkyudavx9c7QtNvKRtody/SU5y1WZf7J1D8flbPM/XZ8NKvF8vU/cP+x+iPBz2liXJDVyeeFE2NCdQvq8timbDfdv6GSILi1g/NrKv3GZ/OGN+aSHr1Ijhvv6GOjyl6iqrwzmV8oRje462KCU3mHn9mtQ9adGjGftafNrmeweqMniyncjte017LdZ66+Hg92r6/OEs86nLKEfmFiOjefcNt2c5csqkb1Q2zNevLMPHnvypg+HpY9fdr9x4Jo9dDS5arKAbkXX2v8L0X6LhxuSBF85OPO1z9RqP3G/YeJ66Aa0fBKhN7FcbnSlnd6zODDl2AzccyPX/wH59LqzEAUlVlpzdau+9HxQNMz7x0WKjPsvGbpJOlrc6+JBcwjxVvv7xvh1umAEAAFievP3bFkW1amJ5+uRne8M5oXYTorPef6B6bVqdiaG81FTDfMuUebIuy5HDOYKGEmepes9WwvEWlxIaVa4TTe93/pxUq3WuhXbrffNz5c0vtilHrj/INGKW0i4AALC5LXofrSpbxbPUlSfKSc7mXz5+3McpT4KVXrmzpzqr3UMvhzNTrgZQ9RR+eG6kz9BmX6y6hPiUM+VVy9NL6/3D6oONvX3WT4vblmxDcwK14/pTTzpV/sxN79s814+cfeVqf3hCOTJjfmmh61RfbodnqOziDOZNynmUjc+pzbUcWd9ejZuPqN6ntCh6PrxYrLOjlw1PDeeO0nUpt+81/bUY9pemPUe7eaWBrsuRf3Hm7Egx8q2/OFN8ZeCXv/xl+HK1+SSHdfPuG27zcuT6U8H2Xet9vSxhrVtZho8dN9CnxhTGqlJZ00Ch3Himj139kRh/RsuNuvrGSngwPudGz/5XmP5LVNuwTtro1F7j9A/i7ZMrg+9/qLdBG/tJ/eHlwdd9cqIaNDzWe//HvI6rvY1e+R5P2FhXf2B6A6MbxR+lXa+mf0rbWT13OOyOz/lo74/mRouGUUflyO6Wt3YQaML6WTXwYzraMAMAALBcefu3U+aH+oZXiWhzWZq2qn3Ylvuvs95/pMg38cO7Q9WHRNODBJupHNni/aheq+QgVjvlOtE8R5E9J9VqnZuu3Xo/5rmy5hfblCN7eeHsmN+V2muzv01pFwAA2NwWvY823OdcOfnWoLS0rpRVFoIOhJNnBj2AXYcbSghVkW7KVTSrnsL6s6+12herPhAWy1VjrmRZuwRuTOv9w4yC3aJsdE6gKtlN6hrcv15deWB303vaM7f1I2dfuU05ssXvyliLXKf68js8lcvF1VnjPn95tswpJy2bZOb1a2L3pPcafWvweOM6PVd/UvyO95KeRbPNOrtaFiBj0u1EZt+r1WtRXR138pl6280rDWz0d3wjphUjT/37vwo/OPjHYeWf/1G4c/fz4tZm8+4bLrQceevWrbku7NDwl7u/4UnLVtVltXsb2effCpeqZvlauP3+ifDso73bHy1W/HUry3Dicdcjvfs8ejAce//ucAN8fy1cPXVoUCqLj3/ofLJx7hlXjuwpz+4Y/xg/e/R8uJq049e+uB7eef1QOPDn83y9ZlBt+J8LR682bRBrr318fR56Orz49vWwVr0H8TU+Fh5/eHCfdZccj2p/BB94+Onwysj39x7hzpVw/GAx0do4Wd1bhvL7G5+/eI+ffG7yZbWjchD10Mth5fl43wmfiulKbf3d/696P1txc90sG7uFa7G8a+8eLsrE8XfyRHjvTu1eX18PZw493X+v95d/tDvYMAMAALB8efu3Y8pjqdrk7+7nj4V3riV7rl/fC1ffPREOvPTWyDLc+MsfhddOXQm307mba6fDyqODx6tPJs96/4mqydAZ5inKCez0yg1TypHVe/DIoXDmi+LGlsrvnWnSvvZ+7D10bjg3tnY3vPf6wcH8QZwP2tCER7lOjPn+7DmpluvcFO3W+/HPtfH5xTblyH1h1yPN8zcny9em97wvvttyXQYAADa3he6j9R6mOFnRniee6xetmgo/5T7S3u883f/vuP2t4QmsevssP0j2WWKP492jVU+hqUDZbl9sLbxzaLjv8+zrF8Lt2tOsXTsXXvx272tPPlfsa6fLeyEcfelEeOfqvdHj5vH1/HHx/Jvow2YbLk6t9vZZi7mOB/YmnZqetWvnw2vP7B18fUIZbZ7rx4b3lVuVI3s2OL/Ue+bMdWqaOXR4KuWJr54LKy8MitGt57IazLccWftgcO91XDlV+xnL7dVDj4XdRYl63SXG42MX798D3z4cztTfv2p791jY/2TxHHPue7V7LXrryktFl+2R3vqYPH6p3bZsoKty5LRiZPr1y1c+Lr7SrN41jN3DXAstR965c2dkgX/1q18VX8lXnXq2n71h197eClJ742+8Ua6Ugzy4Z9/gzIq97H7+dDhTNobXrSy1icdT58OLe8vH6D3HnmLjXSQ+TuNZ8CaUI/ufsK42fEUe2hd2J4+97he1K/cvhlfKP2IxjzwWdvU2ksON73DDuv8n58Kx8g9aL7t6r3H1fTHf/lF4b1xlfvVCeO07oz/zg3t6z1VujGIeXglHPhx3Zsj6ezNI/T3un6Ew/nHq/3vyYG3kjIUZrfd5unC4to6U60dtYzXLxq4L05Y3qs5uWrtfnGwf/HtwFtAuW+sAAAAsX97+bfuiWnX1hOL+MXEuaWQ/NVmGatmKpPePH5itT3vMev9Jqk+zz3TAZDhnM3JGjynlyHDrdHiq9toM5mfaHfi6cfJg2POtJ8JrM+7Gr54dHtBal4eeDq+8P/sn8AfKdWLC8mfNSbVf5yZpt95Peq6Nzi+2KUceCifrvy8P7+vPDZaP2T8A8OaYM10AAABb0uL20Xpql7kde+XP6sN+8fl6+65NHYzC1TdjAap8vHj/9ftCuw+eDbcbHqP1HET8YF2tB9HPI719o/J5+2W/cftsw9v76e1TlWWtwb9XJlzJoHtZx+evnQ7PJp2NdXMtew+FU5N6TXNdPza4r9y2HNmzkfmlvqx1apo5dXgK1eWjY6ZcCnyaeZcjw9fnwyvpOlf9jI+FZ0+dH74WDZ2r9e9fvQe2Nzz+xvVhAXLd1USijfe9Wr8WtXm6cWdcbb0t66med1paPNY4Z86eGyk+nnjrL4uvDKRfP3X6r4qvNIvdwnrXMHYPcy20HPn555+PLHC8dvj8DM7g+HhtRd31w94fueKr0eoHb4UD3x1uiB7csxIOnLzYP9Pk+JUl2eCsfRbO/MmBsLf8gxVX7O8eCsfe/Ww4yZyaWI4ciMv24vefHplcfHDPE2Hv9w/3Hnv0U+ud++J8OBKXrdwoPPJ0OPJh8bX6hjX+Qt+/Fy6cTN6H7xzonylh3Rk911kLN94+Fla+W5+AHnz/i6+fDzemFdB7701sXT/e+2Mz+N74h2f4Hk/dcJZqf0xXzmy89T5Xvdf1naOj693eo8MN3ywbu05MWd7S6uXT4bX6et8bDO79/tFwpnizlSMBAAB2lrz92xknjb+4GI4f6u271icse/ule4p5iHWf9r52Nhx5YSXsqd//kcf6czfHkzMiRLPef6zaFRr2HG13Se3S8LLRL4cz5c8zrRzZs3b1dDKH9nI4lT/vONHajXOjcwS91+rxl94KF2Y8e+Wocp2YVu7c6JzURg9UjGq33k9/rtnnF9uVI+N6Ur0/1fxgfH9OhHemTtgBAABb0WL20aLyssi9jD1R0fByuesvq9ygaf8+Lu8Lx8LJy+OLnDPNQdy/Fy6dOhqe+k59X/np8NSfnCv2Gcfts8Uz0B3ufV+yv/mtlbBytHZmzk0i+/h8vy8Sf95aQbDfqXk5HGnVGZn/+jHzvvIM5ci+GeeXKhtep6aZZ4enp7p89J6w58ezzUul5l6OjMoOV/3n++6hcPyD+LufvBYN1m6cD8deWhmWlosO2OD7a9uJCcu8kb7XLK/F8ARvza/DLNuyRZcjZy1Gpl9vEruF9a5h7B7mWmg58t69eyML/NVXXxVfgU2kvFRV/cABAAAAAOwUsx4MAgAAALaf1bNFOfKJcORycdsOcubgoCy4a8xZGxlaRDEyit3Cetcwdg9zLbQc+c0334ws8O3bm+GCxVB3L5x6odi4vXqhuA0AAAAAdhDlSAAAANjxqrMWjj2T5zZ2/0J4pTij5Ka56uwmtahiZBS7hfWuYewe5lpoOTJKF3q+l9aGTOVZI3do6x0AAAAAlCMBAABgh6vOGrknrLy908qBa+HC/1cUQ111dqJLH12dWHyc9vVJ0ktqz+skjAsvR66uro4s+DyuBQ7zsHbjdFh5dLBh333ofG9TBwAAAAA7kHIkAAAA7FxfXAxHnhz0Zx548kS4Udy8bdx4K6x8/2g4/v71sDpSfFwLq1fPhyM/eKyYF9kTnnrzbvE1mly6fGVi8XHa1yeJncJ6xzB2Dudh4eXItNUZM49TXsLGnA8Hig1ald6G/er94ssAAAAAsNMoRwIAAMAO81k49kTSn3n0UHhnPn20zeXGibC//nM25rHw7MnrTqzWwrvv/TT89fs/K/613rSvN4ldwrRfOK+rUy+8HBl9+eWX636AX/3qV8VXoUsXwisPFxu2R54OK0cvhNuKkQAAAADsZMqRAAAAsMN8Fo4/U/RnHt4XHn/1dLi6HYuR0f21cPXdE+G1F1bCnj17izmQmL1h17dWwsrR0+HSHbXIZYkdwrRXGLuG89JJOTL+ELdu3Rr5IVxeGwAAAAAAAAAAAHam9HLasWM4z5MudlKOjL766quRHyRmni1PAAAAAAAAAAAAYPNruhp17BjOU2flyKjpB4rtT5fYBgAAAAAAAAAAgO0tdgXTM0bGLOJEi52WI6OmHyzmm2++Ke4BAAAAAAAAAAAAbCexI9jUHYydwkXovBwZjStIxtt/+ctfFvcCAAAAAAAAAAAAtrLYCZzUGVyUpZQjo6ZLbJe5fft2//rh8UVxyW0AAAAAAAAAAADYGmLnL3b/YgcwdgGbOoIxi7iUdt3SypFR/OFv3brV+IOLiIiIiIiIiIiIiIiIiIiIiIiIyPZK7AzG7uCiLbUcGcWW6KSzSIqIiIiIiIiIiIiIiIiIiIiIiIjI1k/sCnZ1NemllyNL8TSaq6urE0+jKSIiIiIiIiIiIiIiIiIiIiIiIiJbJ7ETGLuBsSPYpU1Tjqz75ptvwr1798Lnn38e7ty549LbIiIiIiIiIiIiIiIiIiIiIiIiIps8sesXO3+x+xc7gLELuCybshwJAAAAAAAAAAAAsFHKkQAAAAAAAAAAAMC2ohwJAAAAAAAAAAAAbCvKkQAAAAAAAAAAAMC2ohwJAAAAAAAAAAAAbCvKkQAAAAAAAAAAAMC2ohwJAAAAAAAAAAAAbCvKkQAAAAAAAAAAAMA2EsL/D+RgoNcIjiPiAAAAAElFTkSuQmCC;" vertex="1" parent="1">
                    <mxGeometry x="30" y="60" width="811" height="272.18" as="geometry"/>
                </mxCell>
            </root>
        </mxGraphModel>
    </diagram>
</mxfile>